<?xml version="1.0" standalone="no"?> 
<!DOCTYPE svg PUBLIC "-//W3C//DTD SVG 1.1//EN" "http://www.w3.org/Graphics/SVG/1.1/DTD/svg11.dtd" >
<svg xmlns="http://www.w3.org/2000/svg">
<defs>
  <font id="innogy-iconfont" horiz-adv-x="404.65">
    <font-face font-family="innogy-iconfont"
      units-per-em="200" ascent="200"
      descent="0" />
    <missing-glyph horiz-adv-x="0" />
    <glyph glyph-name="arrow"
      unicode="&#xEA01;"
      horiz-adv-x="200" d=" M198.535 103.383L103.984 198.527C102.033 200.491 98.867 200.491 96.916 198.527C94.961 196.562 94.961 193.378 96.916 191.413L182.928 104.86H5C2.24 104.86 0 102.607 0 99.828C0 97.049 2.24 94.797 5 94.797H182.931L97.262 8.588C95.308 6.623 95.308 3.44 97.262 1.475C98.239 0.494 99.518 0 100.797 0S103.356 0.492 104.33 1.475L198.535 96.27C200.49 98.232 200.49 101.418 198.535 103.383z" />
    <glyph glyph-name="arrow_download"
      unicode="&#xEA02;"
      horiz-adv-x="200" d=" M131.869 96.869C129.916 98.822 126.752 98.822 124.799 96.869L105 77.07V135.001C105 137.763 102.762 140.001 100 140.001S95 137.763 95 135.001V77.07L75.203 96.869C73.25 98.822 70.084 98.822 68.131 96.869C66.18 94.916 66.18 91.752 68.131 89.799L96.465 61.467C97.441 60.49 98.722 60.002 100 60.002C101.279 60.002 102.561 60.49 103.535 61.467L131.869 89.799C133.822 91.752 133.822 94.916 131.869 96.869z M100 190.001C149.625 190.001 190 149.627 190 100.001C190 50.376 149.625 10.001 100 10.001C50.373 10.001 10 50.375 10 100.001S50.373 190.001 100 190.001M100 200.001C44.771 200.001 0 155.23 0 100.001C0 44.772 44.771 0.001 100 0.001C155.229 0.001 200 44.772 200 100.001C200 155.23 155.229 200.001 100 200.001L100 200.001z" />
    <glyph glyph-name="arrow_dropdown"
      unicode="&#xEA03;"
      horiz-adv-x="200" d=" M100 190.001C149.625 190.001 190 149.627 190 100.001S149.625 10.001 100 10.001C50.373 10.001 10 50.375 10 100.001S50.373 190.001 100 190.001M100 200.001C44.771 200.001 0 155.23 0 100.001C0 44.772 44.771 0.001 100 0.001C155.229 0.001 200 44.772 200 100.001C200 155.23 155.229 200.001 100 200.001L100 200.001z M131.863 109.788L103.497 81.468C102.555 80.526 101.279 80 99.95 80C98.622 80 97.343 80.527 96.404 81.468L68.133 109.695C66.176 111.652 66.176 114.82 68.133 116.775C70.092 118.728 73.269 118.728 75.226 116.775L99.953 92.087L124.777 116.869C126.734 118.824 129.908 118.824 131.865 116.869C132.845 115.89 133.336 114.609 133.336 113.329C133.336 112.048 132.846 110.766 131.863 109.788z" />
    <glyph glyph-name="arrow_link_external"
      unicode="&#xEA04;"
      horiz-adv-x="200" d=" M100 190.001C149.625 190.001 190 149.627 190 100.001C190 50.376 149.625 10.001 100 10.001C50.373 10.001 10 50.375 10 100.001S50.373 190.001 100 190.001M100 200.001C44.771 200.001 0 155.23 0 100.001C0 44.772 44.771 0.001 100 0.001C155.229 0.001 200 44.772 200 100.001C200 155.23 155.229 200.001 100 200.001L100 200.001z M79.975 124.959C79.975 122.175 82.232 119.918 85.016 119.918L112.787 119.917L71.477 78.609C69.507 76.638 69.507 73.447 71.477 71.478C73.447 69.508 76.639 69.508 78.608 71.478L119.916 112.786V85.019C119.916 82.234 122.174 79.976 124.959 79.976S130 82.234 130 85.017V124.957C130 126.35 129.437 127.611 128.523 128.524C127.611 129.436 126.35 130 124.959 130L85.018 130.001C82.23 130.002 79.974 127.746 79.975 124.959z" />
    <glyph glyph-name="arrow_link_internal"
      unicode="&#xEA05;"
      horiz-adv-x="200" d=" M100 190.001C149.625 190.001 190 149.627 190 100.001S149.625 10.001 100 10.001C50.373 10.001 10 50.375 10 100.001S50.373 190.001 100 190.001M100 200.001C44.771 200.001 0 155.23 0 100.001C0 44.772 44.771 0.001 100 0.001C155.229 0.001 200 44.772 200 100.001C200 155.23 155.229 200.001 100 200.001L100 200.001z M91.879 68.137L120.199 96.504C121.138 97.443 121.666 98.719 121.666 100.049S121.14 102.653 120.199 103.594L91.972 131.866C90.016 133.824 86.847 133.824 84.893 131.866S82.939 126.733 84.893 124.775L109.581 100.049L84.798 75.225C82.845 73.268 82.845 70.093 84.798 68.137C85.777 67.158 87.059 66.667 88.339 66.667C89.617 66.667 90.901 67.158 91.879 68.137z" />
    <glyph glyph-name="arrow_menu_down"
      unicode="&#xEA06;"
      horiz-adv-x="200" d=" M100 190.001C149.625 190.001 190 149.627 190 100.001S149.625 10.001 100 10.001C50.373 10.001 10 50.375 10 100.001S50.373 190.001 100 190.001M100 200.001C44.771 200.001 0 155.23 0 100.001C0 44.772 44.771 0.001 100 0.001C155.229 0.001 200 44.772 200 100.001C200 155.23 155.229 200.001 100 200.001L100 200.001z M133.336 85.007C133.336 83.727 132.846 82.445 131.865 81.467C129.908 79.512 126.734 79.512 124.777 81.467L99.953 106.249L75.226 81.561C73.269 79.608 70.092 79.608 68.133 81.561C66.176 83.516 66.176 86.684 68.133 88.641L96.404 116.868C97.343 117.809 98.622 118.336 99.95 118.336C101.279 118.336 102.554 117.81 103.497 116.868L131.863 88.548C132.846 87.57 133.336 86.288 133.336 85.007z" />
    <glyph glyph-name="arrow_right"
      unicode="&#xEA07;"
      horiz-adv-x="200" d=" M198.535 103.383L103.984 198.527C102.033 200.491 98.867 200.491 96.916 198.527C94.961 196.562 94.961 193.378 96.916 191.413L182.928 104.86H5C2.24 104.86 0 102.607 0 99.828C0 97.049 2.24 94.797 5 94.797H182.931L97.262 8.588C95.308 6.623 95.308 3.44 97.262 1.475C98.239 0.494 99.518 0 100.797 0S103.356 0.492 104.33 1.475L198.535 96.27C200.49 98.232 200.49 101.418 198.535 103.383z" />
    <glyph glyph-name="burger_menu"
      unicode="&#xEA08;"
      horiz-adv-x="200" d=" M195.008 145H4.994C2.235 145 0 147.238 0 150S2.235 155 4.994 155H195.008C197.766 155 200 152.762 200 150S197.766 145 195.008 145z M200 100C200 102.762 197.766 105 195.008 105H4.994C2.235 105 0 102.762 0 100C0 97.237 2.235 95 4.994 95H195.008C197.766 95 200 97.237 200 100z M200 50C200 52.76 197.766 55 195.008 55H4.994C2.235 55 0 52.76 0 50C0 47.239 2.235 45 4.994 45H195.008C197.766 45 200 47.239 200 50z" />
    <glyph glyph-name="calendar"
      unicode="&#xEA09;"
      horiz-adv-x="200" d=" M122.498 118.56C122.498 116.002 121.789 113.884 119.484 110.883C108.589 97.029 103.009 79.293 101.328 68.707C100.884 66.234 99.289 65.001 96.365 65.001H92.998C89.81 65.001 88.039 66.498 88.48 69.236C90.429 81.148 97.162 99.765 107.88 113.971C108.499 114.764 108.145 115.47 107.171 115.47H80.331C78.823 115.47 77.495 116.178 77.495 119.353V121.029C77.495 124.118 78.823 125 80.331 125H116.118C120.549 125 122.498 122.619 122.498 118.56z M194.998 58.334C197.76 58.334 199.998 60.572 199.998 63.334V153.334C199.998 157.928 196.26 161.666 191.664 161.666H169.998V166.666C169.998 169.428 167.76 171.666 164.998 171.666C162.238 171.666 159.998 169.428 159.998 166.666V161.666H149.998V166.666C149.998 169.428 147.76 171.666 144.998 171.666C142.238 171.666 140 169.428 140 166.666V161.666H59.998V166.666C59.998 169.428 57.76 171.666 54.998 171.666S49.998 169.428 49.998 166.666V161.666H39.998V166.666C39.998 169.428 37.76 171.666 34.998 171.666S29.998 169.428 29.998 166.666V161.666H8.332C3.738 161.666 0 157.928 0 153.334V36.667C0 32.074 3.738 28.334 8.332 28.334H194.996C197.756 28.334 199.996 30.574 199.996 33.334C199.996 36.096 197.756 38.334 194.996 38.334H10V151.667H29.998V146.667C29.998 143.905 32.236 141.667 34.998 141.667S39.998 143.905 39.998 146.667V151.667H49.998V146.667C49.998 143.905 52.236 141.667 54.998 141.667S59.998 143.905 59.998 146.667V151.667H140V146.667C140 143.905 142.238 141.667 145 141.667C147.76 141.667 149.998 143.905 149.998 146.667V151.667H159.998V146.667C159.998 143.905 162.238 141.667 164.998 141.667C167.76 141.667 169.998 143.905 169.998 146.667V151.667H189.998V63.334C189.998 60.572 192.238 58.334 194.998 58.334z" />
    <glyph glyph-name="chat"
      unicode="&#xEA0A;"
      horiz-adv-x="233" d=" M108.751 0.207C106.946 0.207 105.201 0.884 103.866 2.127C102.387 3.493 101.543 5.427 101.543 7.446V34.757H37.194C16.96 34.757 0.5 51.293 0.5 71.634V162.917C0.5 183.248 16.959 199.792 37.194 199.792H195.808C216.043 199.792 232.5 183.248 232.5 162.917V71.633C232.5 51.292 216.043 34.756 195.808 34.756H158.714C154.235 21.381 140.326 2.738 109.331 0.221C109.135 0.207 108.947 0.207 108.751 0.207zM37.194 185.308C24.91 185.308 14.919 175.263 14.919 162.917V71.633C14.919 59.278 24.91 49.236 37.194 49.236H108.751C112.732 49.236 115.96 45.997 115.96 41.995V15.776C142.316 21.318 145.798 42.073 145.946 43.034C146.485 46.57 149.519 49.236 153.078 49.236H195.807C208.088 49.236 218.08 59.278 218.08 71.633V162.917C218.08 175.262 208.088 185.308 195.807 185.308H37.194z" />
    <glyph glyph-name="check_checkbox"
      unicode="&#xEA0B;"
      horiz-adv-x="133" d=" M61.207 0.262C63.209 0.393 64.937 1.702 65.603 3.59L132.719 193.117C133.631 195.716 132.256 198.561 129.648 199.472C127.044 200.376 124.183 199.013 123.271 196.411L60.035 17.939L9.473 117.117C8.224 119.575 5.209 120.557 2.746 119.315C0.279 118.071 -0.707 115.07 0.539 112.613L56.414 2.985C57.268 1.299 59 0.25 60.875 0.25C60.986 0.25 61.097 0.253 61.207 0.262z" />
    <glyph glyph-name="checkmark-ellipse"
      unicode="&#xEA0C;"
      horiz-adv-x="200" d=" M100 200C44.771 200 0 155.229 0 100C0 44.771 44.771 0.001 100 0.001C155.228 0.001 199.998 44.772 199.998 100C199.998 155.229 155.229 200 100 200zM124.718 133.35L101.385 66.683C100.722 64.79 98.994 63.478 96.994 63.345C96.883 63.338 96.773 63.335 96.662 63.336C94.789 63.336 93.059 64.39 92.205 66.078L73.873 102.301C72.625 104.764 73.613 107.773 76.076 109.02C78.537 110.264 81.549 109.28 82.795 106.816L95.826 81.068L115.279 136.652C116.19 139.26 119.047 140.626 121.649 139.72C124.256 138.808 125.629 135.955 124.718 133.35z" />
    <glyph glyph-name="checkmark"
      unicode="&#xEA0D;"
      horiz-adv-x="133" d=" M61.207 0.262C63.209 0.393 64.937 1.702 65.603 3.59L132.719 193.117C133.631 195.716 132.256 198.561 129.648 199.472C127.044 200.376 124.183 199.013 123.271 196.411L60.035 17.939L9.473 117.117C8.224 119.575 5.209 120.557 2.746 119.315C0.279 118.071 -0.707 115.07 0.539 112.613L56.414 2.985C57.268 1.299 59 0.25 60.875 0.25C60.986 0.25 61.097 0.253 61.207 0.262z" />
    <glyph glyph-name="circle-archive"
      unicode="&#xEA0E;"
      horiz-adv-x="200" d=" M100 191C149.63 191 190 150.63 190 101S149.63 11 100 11C50.38 11 10 51.37 10 101S50.38 191 100 191M100 201C44.77 201 0 156.23 0 101S44.77 1 100 1S200 45.77 200 101S155.23 201 100 201L100 201z M144.25 143.97H55.76C51.95 143.97 48.84 140.87 48.84 137.05L48.83 64.94C48.83 61.13 51.93 58.02 55.75 58.02H146.71C149.17 58.02 151.17 60.02 151.17 62.48C151.17 64.94 149.17 66.94 146.71 66.94H57.75L57.75 116.2H142.25V77.23C142.25 74.77 144.25 72.77 146.71 72.77C149.17 72.77 151.17 74.77 151.17 77.23V137.06C151.17 140.87 148.06 143.97 144.25 143.97L144.25 143.97zM57.76 135.06H142.25V125.13H57.75L57.76 135.06L57.76 135.06z M110.35 90.5H89.65C84.55 90.5 80.4 94.65 80.4 99.75S84.55 109 89.65 109H110.34C115.44 109 119.59 104.85 119.59 99.75S115.45 90.5 110.35 90.5zM89.65 101C88.96 101 88.4 100.44 88.4 99.75S88.96 98.5 89.65 98.5H110.34C111.03 98.5 111.59 99.06 111.59 99.75S111.04 101 110.35 101H89.65z" />
    <glyph glyph-name="circle-arrow-left-up"
      unicode="&#xEA0F;"
      horiz-adv-x="200" d=" M100 190C149.62 190 190 149.63 190 100C190 50.38 149.62 10 100 10C50.37 10 10 50.37 10 100S50.37 190 100 190M100 200C44.77 200 0 155.23 0 100S44.77 0 100 0S200 44.77 200 100S155.23 200 100 200L100 200z M114.98 130L75.04 130C73.65 130 72.39 129.44 71.48 128.52C70.56 127.61 70 126.35 70 124.96V85.02C70 82.24 72.26 79.98 75.04 79.98C77.82 79.98 80.08 82.24 80.08 85.02V112.79L121.39 71.48C123.36 69.51 126.55 69.51 128.52 71.48C130.49 73.45 130.49 76.64 128.52 78.61L87.21 119.92L114.98 119.92C117.76 119.92 120.02 122.18 120.02 124.96C120.03 127.75 117.77 130 114.98 130z" />
    <glyph glyph-name="circle-delete"
      unicode="&#xEA10;"
      horiz-adv-x="200" d=" M128.54 39.45H71.46C69 39.45 66.9 41.24 66.52 43.67L53.4 126.52C53.17 127.96 53.59 129.44 54.54 130.55C55.49 131.66 56.88 132.3 58.34 132.3H141.67C143.13 132.3 144.52 131.66 145.47 130.55C146.42 129.44 146.83 127.96 146.6 126.52L136.26 61.8C135.82 59.07 133.26 57.22 130.53 57.65C127.8 58.09 125.95 60.65 126.38 63.38L135.79 122.31H64.19L75.73 49.45H128.54C131.3 49.45 133.54 47.21 133.54 44.45C133.54 41.69 131.31 39.45 128.54 39.45z M85.13 57.89C82.71 57.89 80.59 59.65 80.2 62.11L72.5 110.74C72.07 113.47 73.93 116.03 76.65 116.46C79.38 116.9 81.94 115.03 82.37 112.31L90.07 63.68C90.5 60.95 88.64 58.39 85.92 57.96C85.66 57.91 85.39 57.89 85.13 57.89z M141.67 148.03H117C115.19 155.38 108.49 160.55 100 160.55C91.5 160.55 84.81 155.38 83 148.03H58.33C55.57 148.03 53.33 145.79 53.33 143.03C53.33 140.27 55.57 138.03 58.33 138.03H141.66C144.42 138.03 146.66 140.27 146.66 143.03C146.67 145.79 144.43 148.03 141.67 148.03zM100 150.55C102.27 150.55 104.64 149.74 106.1 148.03H93.9C95.36 149.74 97.73 150.55 100 150.55z M100 190C149.63 190 190 149.62 190 100C190 50.37 149.63 10 100 10C50.37 10 10 50.37 10 100C10 149.62 50.37 190 100 190M100 200C44.77 200 0 155.23 0 100C0 44.77 44.77 0 100 0S200 44.77 200 100C200 155.23 155.23 200 100 200L100 200z" />
    <glyph glyph-name="circle-docs-copy"
      unicode="&#xEA11;"
      horiz-adv-x="200" d=" M100 190C149.63 190 190 149.63 190 100S149.63 10 100 10C50.38 10 10 50.37 10 100S50.38 190 100 190M100 200C44.77 200 0 155.23 0 100S44.77 0 100 0S200 44.77 200 100S155.23 200 100 200L100 200z M122.5 48H62.5C59.56 48 57.17 50.39 57.17 53.33V131.67C57.17 134.61 59.56 137 62.5 137H72.17V146.67C72.17 149.61 74.56 152 77.5 152H137.5C140.44 152 142.83 149.61 142.83 146.67V82.53C142.83 80.05 140.81 78.03 138.33 78.03C137.13 78.03 136 78.5 135.15 79.35C134.3 80.2 133.83 81.33 133.83 82.53V143H81.17V137H122.5C125.44 137 127.83 134.61 127.83 131.67V72H138.33C140.81 72 142.83 69.98 142.83 67.5S140.81 63 138.33 63H127.83V53.33C127.83 50.39 125.44 48 122.5 48zM66.17 57H118.84L118.84 128H66.17V57z" />
    <glyph glyph-name="circle-eye-closed"
      unicode="&#xEA12;"
      horiz-adv-x="200" d=" M100 200C44.77 200 0 155.23 0 100C0 44.77 44.77 0 100 0C155.23 0 200 44.77 200 100C200 155.23 155.23 200 100 200zM100 10C50.37 10 10 50.37 10 100C10 149.62 50.37 190 100 190C149.63 190 190 149.62 190 100C190 50.37 149.63 10 100 10z M167.42 102.04L167.42 102.04C167.23 102.46 148.55 143.63 100.99 144.5C100.5 144.51 100.01 144.51 99.53 144.51C52.22 144.51 32.78 102.38 32.59 101.96C31.99 100.63 31.97 99.1 32.53 97.76C32.57 97.68 35.99 89.57 44.27 80.46L42.58 74.15C42.21 72.78 42.4 71.36 43.11 70.13S44.96 68.03 46.32 67.67C46.77 67.55 47.23 67.49 47.7 67.49C50.09 67.49 52.19 69.1 52.81 71.41L53.03 72.24C55.37 70.38 57.81 68.66 60.32 67.11L59.36 61.64C58.85 58.77 60.78 56.02 63.65 55.51C66.57 54.99 69.28 56.97 69.78 59.8L70.18 62.04C72.26 61.17 74.4 60.39 76.57 59.7L76.16 55.05C76.04 53.64 76.47 52.27 77.38 51.1899999999999C78.29 50.1099999999999 79.57 49.4399999999999 80.95 49.3199999999999C83.95 49.0099999999999 86.45 51.2099999999999 86.71 54.1299999999999L86.98 57.2299999999999C89 56.8899999999999 91 56.6299999999999 93 56.4399999999999V52.3799999999999C93 49.46 95.38 47.0899999999999 98.29 47.0899999999999S103.58 49.46 103.58 52.3799999999999V56.1399999999999C105.59 56.2099999999999 107.6 56.3599999999999 109.58 56.5899999999999L109.87 53.2699999999999C110.11 50.5199999999999 112.38 48.4399999999999 115.14 48.4399999999999C115.3 48.4399999999999 115.45 48.4499999999999 115.61 48.4599999999999C118.52 48.7099999999999 120.68 51.2899999999999 120.42 54.1999999999999L120.04 58.5399999999999C122.18 59.0999999999999 124.3 59.7599999999999 126.37 60.5099999999999L126.81 58.0399999999999C127.26 55.4999999999999 129.45 53.6599999999999 132.02 53.6599999999999C132.33 53.6599999999999 132.64 53.6899999999999 132.94 53.74C134.33 53.99 135.55 54.76 136.36 55.92S137.48 58.48 137.24 59.88L136.34 65C138.8 66.34 141.18 67.82 143.46 69.43L143.79 68.19C144.41 65.88 146.51 64.26 148.9 64.26C149.37 64.26 149.83 64.32 150.27 64.44C153.09 65.2 154.77 68.11 154.01 70.92L152.4 76.93C154.07 78.61 154.96 79.72 155.06 79.85C156.88 82.12 156.51 85.46 154.24 87.28C153.93 87.53 153.6 87.74 153.25 87.91C160.89 92.02 165.42 95.44 165.77 95.7C167.73 97.19 168.41 99.8 167.42 102.04zM100.8 66.68C100.37 66.68 99.94 66.68 99.5 66.69C80.64 67.05 67.43 73.92 58.8 80.95C84.28 70.08 108.25 72.36 124.74 76.65C131.76 78.48 138.12 80.81 143.61 83.21C137.5 77.59 122.8 66.68 100.8 66.68zM121.85 86.84C93.66 79.56 67.56 84.45 44.23 101.36C49.78 110.85 67.03 134.53 100.81 133.91C133.83 133.31 150.35 110.8 155.71 101.63C149.95 97.93 137.64 90.92 121.85 86.84z" />
    <glyph glyph-name="circle-eye-open"
      unicode="&#xEA13;"
      horiz-adv-x="200" d=" M100 126.15C91.63 126.15 84.83 119.34 84.83 110.98S91.63 95.8 100 95.8S115.17 102.61 115.17 110.97S108.36 126.15 100 126.15zM100 106.39C97.47 106.39 95.41 108.45 95.41 110.98S97.47 115.57 100 115.57S104.59 113.51 104.59 110.98S102.52 106.39 100 106.39z M167.34 101.99L167.34 101.99C154.95 127.68 128.54 144.27 100.05 144.27C71.45 144.27 44.98 127.57 32.64 101.73C32.01 100.4 31.97 98.86 32.52 97.47L32.65 97.15C44.76 71.99 71.19 55.73 99.99 55.73C120.84 55.73 140.86 64.25 154.9 79.12C156.9 81.24 156.81 84.6 154.68 86.6C152.56 88.6 149.2 88.51 147.2 86.38C135.15 73.63 117.95 66.31 99.99 66.31C76.31 66.31 54.21 79.29 43.39 99.45C49.01 110.07 57.6 118.95 68.03 125C66.07 120.59 65.06 115.84 65.06 110.98C65.06 91.72 80.73 76.04 100 76.04S134.94 91.71 134.94 110.98C134.94 115.88 133.91 120.68 131.92 125.12C143.15 118.67 152.21 109.01 157.82 97.39C159.09 94.77 162.25 93.66 164.89 94.92C166.16 95.53 167.12 96.61 167.59 97.94S167.96 100.71 167.34 101.99zM100 86.63C86.57 86.63 75.65 97.55 75.65 110.98C75.65 120.06 80.89 128.54 89.02 132.67C92.79 133.34 96.5 133.68 100.05 133.68C103.54 133.68 107.19 133.35 110.92 132.69C119.09 128.57 124.35 120.08 124.35 110.97C124.34 97.55 113.42 86.63 100 86.63z M100 200C44.77 200 0 155.23 0 100C0 44.77 44.77 0 100 0C155.23 0 200 44.77 200 100C200 155.23 155.23 200 100 200zM100 10C50.37 10 10 50.37 10 100C10 149.62 50.37 190 100 190C149.63 190 190 149.62 190 100C190 50.37 149.63 10 100 10z" />
    <glyph glyph-name="circle-meeting"
      unicode="&#xEA14;"
      horiz-adv-x="200" d=" M100 190C149.63 190 190 149.63 190 100S149.63 10 100 10C50.38 10 10 50.37 10 100S50.38 190 100 190M100 200C44.77 200 0 155.23 0 100S44.77 0 100 0S200 44.77 200 100S155.23 200 100 200L100 200z M100.82 46.99C98.32 46.99 95.8 47.66 93.56 49.01L93.34 48.78L91.85 50.15L51.45 89.6C50.49 90.53 49.95 91.78 49.94 93.12C49.92 94.46 50.43 95.73 51.37 96.69C53.31 98.67 56.5 98.71 58.48 96.77L97.81 58.37C99.39 56.83 101.86 56.66 103.43 57.97C104.32 58.71 104.84 59.75 104.89 60.9C104.94 62.03 104.51 63.13 103.71 63.93L103.54 64.1L101.93 65.53C100.9 66.53 100.36 67.78 100.35 69.12C100.33 70.46 100.84 71.73 101.79 72.69C103.72 74.67 106.91 74.7 108.89 72.77L113.44 68.5C115.05 66.94 117.51 66.76 119.09 68.07C119.98 68.81 120.5 69.85 120.55 71C120.6 72.13 120.17 73.23 119.37 74.03L116.21 76.91C115.2 77.89 114.66 79.14 114.65 80.48C114.63 81.82 115.15 83.09 116.09 84.05C118.03 86.03 121.21 86.06 123.19 84.13L127.69 79.94C129.27 78.39 131.74 78.21 133.32 79.52C134.21 80.26 134.73 81.3 134.78 82.45C134.83 83.58 134.4 84.68 133.6 85.48L118.4 100.29C116.02 97.42 113.46 94.95 110.75 92.92C105.09 88.67 98.72 85.81 91.81 84.4L89.72 83.97L89.69 84.21C84.31 84.06 79.33 86.97 76.79 91.84C74.13 96.93 75.18 103.9 79.24 108.07C80.67 109.54 82.39 110.68 84.8 111.76C86.11 112.4999999999999 87.7 113.52 88.7 114.27C92.38 117.03 94.55 119.49 96.1 122.74L81.1 137.69L46.08 102.76C45.11 101.79 43.83 101.26 42.46 101.26C41.09 101.26 39.8 101.79 38.83 102.76C37.86 103.72 37.33 105.01 37.33 106.38C37.33 107.75 37.87 109.04 38.83 110L77.41 148.5C79.44 150.52 82.45 150.55 84.41 148.58C84.56 148.43 94.3 138.71 99.14 133.88C99.39 134.54 99.78 135.13 100.28 135.63L106.1 141.41C109.96 145.24 114.11 149.37 114.22 149.47C116.23 151.48 119.37 151.5 121.37 149.52L161.03 110.03C162.47 108.6 162.88 106.51 162.24 104.7L162.66 104.31L144.52 86.23C145.67 81.56 144.26 76.3 140.81 72.78C138.05 69.96 134.24 68.43 130.36 68.56C129.85 65.85 128.54 63.33 126.58 61.33C123.37 58.05 118.87 56.58 114.42 57.24C113.79 54.99 112.6 52.94 110.93 51.24C108.16 48.43 104.5 46.99 100.82 46.99zM86.69 101.3C85.11 99.93 84.84 97.53 86.11 95.85C87.03 94.63 88.54 94.04 90.05 94.3C90.14 94.32 90.21 94.33 90.27 94.34L93.99 95.33C97.84 96.6 101.45 98.48 104.72 100.93C108.22 103.55 111.6 107.13 113.78 110.5C113.83 110.58 114.17 111.01 114.17 111.01C114.99 111.94 115.97 112.5 117.07 112.72C117.37 112.78 117.69 112.79 118.01 112.76C118.73 112.68 120.08 112.37 121.29 111.24L128.23 104.66L138.63 94.53L150.35 106.22L117.69 138.74C112.06 133.14 109.79 130.91 108.85 129.98C108.51 127.39 107.99 124.92 107.4 123.11C105.51 117.33 100.02 110.16 94.03 105.68C91.77 103.99 89.31 102.52 86.69 101.3zM117.84 108.8C117.84 108.8 117.84 108.8 117.84 108.8C117.84 108.8 117.84 108.8 117.84 108.8z" />
    <glyph glyph-name="circle-minus"
      unicode="&#xEA15;"
      horiz-adv-x="200" d=" M100 190C149.63 190 190 149.63 190 100S149.63 10 100 10C50.38 10 10 50.37 10 100S50.38 190 100 190M100 200C44.77 200 0 155.23 0 100S44.77 0 100 0S200 44.77 200 100S155.23 200 100 200L100 200z M59.95 94.99L140.05 94.99C142.82 94.99 145.07 97.24 145.06 100C145.06 102.77 142.82 105.01 140.05 105.01L59.95 105.01C58.57 105.01 57.31 104.45 56.4 103.54C55.49 102.63 54.93 101.38 54.93 99.99C54.94 97.23 57.18 94.98 59.95 94.99z" />
    <glyph glyph-name="circle-plus"
      unicode="&#xEA16;"
      horiz-adv-x="200" d=" M100 190C149.63 190 190 149.63 190 100S149.63 10 100 10C50.38 10 10 50.37 10 100S50.38 190 100 190M100 200C44.77 200 0 155.23 0 100S44.77 0 100 0S200 44.77 200 100S155.23 200 100 200L100 200z M59.95 94.99L94.99 94.99L94.99 59.94C94.99 57.17 97.23 54.93 100 54.93C102.76 54.93 105 57.17 105 59.93L105 94.98L140.04 94.98C142.81 94.98 145.06 97.23 145.05 99.99C145.05 102.76 142.81 105 140.04 105H105L105 140.05C105 142.81 102.76 145.05 100 145.05C98.62 145.05 97.36 144.49 96.46 143.58C95.55 142.67 94.99 141.42 94.99 140.04L94.99 104.99L59.95 104.99C58.57 104.99 57.31 104.43 56.4 103.52C55.49 102.61 54.93 101.36 54.93 99.97C54.94 97.23 57.18 94.98 59.95 94.99z" />
    <glyph glyph-name="circle-print"
      unicode="&#xEA17;"
      horiz-adv-x="200" d=" M100 200C44.77 200 0 155.23 0 100C0 44.77 44.77 0 100 0S200 44.77 200 100C200 155.23 155.23 200 100 200zM100 10C50.37 10 10 50.37 10 100C10 149.62 50.37 190 100 190C149.63 190 190 149.62 190 100C190 50.37 149.63 10 100 10z M142.93 102H140.16V118.28C140.16 122.46 136.76 125.86 132.58 125.86H130.61V143.22C130.61 146.8 127.74 149.71 124.22 149.71H75.77C72.25 149.71 69.38 146.8 69.38 143.22V125.85H67.41C63.23 125.85 59.83 122.45 59.83 118.27V102H57.06C53.33 102 50.29 98.96 50.29 95.23V57.07C50.29 53.34 53.33 50.3 57.06 50.3H145.31C147.73 50.3 149.7 52.27 149.7 54.69S147.73 59.07 145.31 59.07H59.07V93.23H140.94V68.99C140.94 66.57 142.91 64.61 145.33 64.61S149.72 66.58 149.72 68.99V95.23C149.7 98.96 146.67 102 142.93 102zM69.38 102H68.61V117.08H69.38V102zM121.85 102H78.15V140.93H121.85V102zM131.39 102H130.62V117.08H131.39V102z M123.5 80.25C123.5 76.9362915010152 126.1862915010152 74.25 129.5 74.25C132.8137084989848 74.25 135.5 76.9362915010152 135.5 80.25C135.5 83.5637084989848 132.8137084989848 86.25 129.5 86.25C126.1862915010152 86.25 123.5 83.5637084989848 123.5 80.25z" />
    <glyph glyph-name="circle-retweet"
      unicode="&#xEA18;"
      horiz-adv-x="200" d=" M100 190C149.63 190 190 149.63 190 100S149.63 10 100 10C50.38 10 10 50.37 10 100S50.38 190 100 190M100 200C44.77 200 0 155.23 0 100S44.77 0 100 0S200 44.77 200 100S155.23 200 100 200L100 200z M115.98 152C113.23 152 110.74 150.96 108.97 149.07C107.13 147.17 106.18 144.57 106.18 141.36V140.73C84.6 139.59 71.63 130.47 64.5 122.88C56.6 114.39 53.9 105.82 53.44 104.18L53.43 104.16L53.42 104.12C52.59 100.93 54.05 97.63 56.98 96.1C57.96 95.58 59.02 95.32 60.21 95.32C62.24 95.32 64.19 96.23 65.57 97.81C72.51 106.16 81.45 112.12 92.16 115.56C97.53 117.28 102.44 118.08 106.09 118.44C106.13 115.39 107.11 112.77 108.95 110.87C110.73 109.03 113.21 108.01 115.93 108.01C118.46 108.01 120.83 108.91 122.22 109.75C123.26 110.4 136.83 119.52 143.09 123.78C144.84 124.71 146.13 126.41 146.56 128.38C146.72 128.97 146.72 129.53 146.72 129.95C146.72 130.43 146.66 130.92 146.6 131.33L146.59 131.39L146.58 131.45C146.17 133.41 144.88 135.14 143.11 136.11L122.61 149.99C121.89 150.48 119.35 152 115.98 152L115.98 152zM115.08 131.68V133.81V134.26C115.08 135.12 115.08 137.4 115.13 141.28C115.13 143 115.6 143 115.98 143C116.61 143 117.37 142.67 117.57 142.54C118.38 142 130.81 133.63 136.19 130.01C128.43 124.77 118.56 118.1 117.67 117.55C117.32 117.36 116.61 117.07 115.97 117.07C115.6 117.07 115.15 117.07 115.12 118.75C115.12 121.3 115.1 123.16 115.08 124.4C115.07 125 115.07 125.45 115.07 125.76V127.6L113.24 127.75C113.17 127.76 112.52 127.81 111.32 127.81C104.85 127.81 84.9 126.56 67.59 112.51C73.82 121.17 86.41 131.85 110.62 131.85C111.4 131.85 112.21 131.85 112.94 131.8L115.08 131.68L115.08 131.68z M83.93 48.02C86.68 48.02 89.17 49.06 90.94 50.95C92.78 52.85 93.73 55.45 93.73 58.66V59.29C115.32 60.42 128.28 69.55 135.42 77.13C143.32 85.62 146.02 94.19 146.48 95.83L146.49 95.85L146.5 95.89C147.33 99.08 145.87 102.38 142.94 103.91C141.96 104.43 140.9 104.69 139.71 104.69C137.68 104.69 135.73 103.78 134.35 102.2C127.41 93.85 118.47 87.89 107.76 84.45C102.39 82.73 97.48 81.93 93.83 81.57C93.79 84.62 92.81 87.24 90.97 89.14C89.19 90.9800000000001 86.71 92 83.99 92C81.46 92 79.09 91.1 77.7 90.2600000000001C76.66 89.61 63.09 80.4900000000001 56.83 76.2300000000001C55.08 75.3 53.79 73.6000000000001 53.36 71.6300000000001C53.2 71.0400000000001 53.2 70.4800000000001 53.2 70.0600000000001C53.2 69.5800000000001 53.26 69.0900000000001 53.32 68.6800000000001L53.33 68.6200000000001L53.34 68.5600000000001C53.75 66.6000000000001 55.04 64.8700000000001 56.81 63.9000000000001L77.31 50.0200000000001C78.02 49.54 80.56 48.02 83.93 48.02L83.93 48.02zM84.83 68.35V66.22V65.77C84.83 64.91 84.83 62.63 84.78 58.75C84.78 57.03 84.31 57.03 83.93 57.03C83.3 57.03 82.54 57.36 82.34 57.49C81.53 58.03 69.1 66.4 63.72 70.02C71.48 75.26 81.35 81.93 82.24 82.48C82.59 82.67 83.3 82.96 83.94 82.96C84.31 82.96 84.76 82.96 84.79 81.28C84.79 78.73 84.81 76.87 84.83 75.63C84.84 75.03 84.84 74.58 84.84 74.27V72.43L86.67 72.28C86.74 72.27 87.39 72.22 88.59 72.22C95.06 72.22 115.01 73.47 132.32 87.52C126.09 78.86 113.5 68.18 89.29 68.18C88.51 68.18 87.7 68.18 86.97 68.23L84.83 68.35L84.83 68.35z" />
    <glyph glyph-name="circle-search"
      unicode="&#xEA19;"
      horiz-adv-x="200" d=" M100 190C149.63 190 190 149.63 190 100S149.63 10 100 10C50.38 10 10 50.37 10 100S50.38 190 100 190M100 200C44.77 200 0 155.23 0 100S44.77 0 100 0S200 44.77 200 100S155.23 200 100 200L100 200z M147.36 47.5C146.12 47.5 144.89 47.97 143.95 48.91L107.67 85.17C100.48 79.7 91.52 77.01 82.46 77.62C64.05 78.83 49.07 93.61 47.62 111.98C46.75 122.99 50.71 133.76 58.48 141.52C66.26 149.3 77.04 153.25 88.06 152.38C106.08 150.95 120.82 136.3 122.36 118.3C122.78 113.35 122.25 108.47 120.79 103.8C120.29 102.21 119.25 101.01 117.85 100.43C116.47 99.85 114.9 99.95 113.43 100.71C111.09 101.92 110.19 104.27 111.03 106.98C112.15 110.61 112.5 114.4 112.05 118.26C110.57 130.99 99.79 141.27 86.97 142.18C79.1 142.74 71.35 139.86 65.76 134.29C60.17 128.72 57.28 121.01 57.81 113.13C58.79 98.72 71.41 87.32 85.87 87.8C93.21 88.02 99.83 90.75 104.5 95.48C106.43 97.43 109.59 97.47 111.55 95.56C112.19 94.93 112.76 94.38 113.19 93.86L113.22 93.89L151.08 56.05C151.99 55.14 152.49 53.93 152.49 52.64S151.99 50.14 151.08 49.23L150.77 48.92C149.84 47.97 148.6 47.5 147.36 47.5zM115.63 105.23L115.63 105.23L115.63 105.23z" />
    <glyph glyph-name="circle-trolley-check"
      unicode="&#xEA1A;"
      horiz-adv-x="200" d=" M143.32 134.23C141.71 134.23 140.27 133.42 139.43 132.15L132.87 99.87C131.81 94.74 129.69 93.01 124.5 93.01L73.4 93L59.84 140.92C59.16 143.31 56.95 144.98 54.47 144.98H41.15C38.57 144.98 36.46 142.88 36.46 140.29C36.46 137.71 38.56 135.6 41.15 135.6H51.59L64.57 89.71L64.69 89.36C65.94 85.61 68.64 83.62 72.52 83.62H124.5C134.37 83.62 140.29 88.49 142.08 98.09L147.93 128.59C147.99 128.9 148.02 129.21 148.03 129.53C148.01 132.13 145.91 134.23 143.32 134.23z M117.33 68.49C110.3 68.49 104.58 62.77 104.58 55.74C104.58 48.71 110.3 42.99 117.33 42.99S130.08 48.71 130.08 55.74C130.09 62.77 124.36 68.49 117.33 68.49zM117.33 50.74C114.57 50.74 112.33 52.98 112.33 55.74S114.57 60.74 117.33 60.74S122.33 58.5 122.33 55.74S120.09 50.74 117.33 50.74z M85.07 68.49C78.04 68.49 72.32 62.77 72.32 55.74C72.32 48.71 78.04 42.99 85.07 42.99C92.1 42.99 97.82 48.71 97.82 55.74C97.82 62.77 92.1 68.49 85.07 68.49zM85.07 50.74C82.31 50.74 80.07 52.98 80.07 55.74S82.31 60.74 85.07 60.74S90.07 58.5 90.07 55.74S87.83 50.74 85.07 50.74z M132.57 80.25H71.62C69.04 80.25 66.94 78.15 66.94 75.56C66.94 72.97 69.04 70.87 71.62 70.87H132.57C135.15 70.87 137.25 72.97 137.25 75.56C137.26 78.15 135.15 80.25 132.57 80.25z M96.12 102.33C96.92 100.74 98.52 99.76 100.3 99.76C100.41 99.76 100.52 99.76 100.61 99.77C102.49 99.89 104.11 101.12 104.73 102.9L117.28 138.75C118.13 141.19 116.84 143.87 114.4 144.73C111.96 145.58 109.28 144.29 108.43 141.85L99.52 116.39L94.63 126.04C94.06 127.16 93.1 127.99 91.91 128.38C90.72 128.77 89.45 128.67 88.33 128.11C87.21 127.54 86.38 126.58 85.99 125.39C85.6 124.2 85.7 122.93 86.26 121.81L96.12 102.33z M100 200C44.77 200 0 155.23 0 100C0 44.77 44.77 0 100 0C155.23 0 200 44.77 200 100C200 155.23 155.23 200 100 200zM100 10C50.37 10 10 50.37 10 100C10 149.62 50.37 190 100 190C149.62 190 190 149.62 190 100S149.62 10 100 10z" />
    <glyph glyph-name="circle-trolley-input"
      unicode="&#xEA1B;"
      horiz-adv-x="200" d=" M100 200C44.77 200 0 155.23 0 100C0 44.77 44.77 0 100 0C155.23 0 200 44.77 200 100C200 155.23 155.23 200 100 200zM100 10C50.37 10 10 50.37 10 100C10 149.62 50.37 190 100 190C149.62 190 190 149.62 190 100S149.62 10 100 10z M143.32 134.23C141.71 134.23 140.27 133.42 139.43 132.15L132.87 99.87C131.81 94.74 129.69 93.01 124.5 93.01L73.4 93L59.84 140.92C59.16 143.31 56.95 144.98 54.47 144.98H41.15C38.57 144.98 36.46 142.88 36.46 140.29C36.46 137.71 38.56 135.6 41.15 135.6H51.59L64.57 89.71L64.69 89.36C65.94 85.61 68.64 83.62 72.52 83.62H124.5C134.37 83.62 140.29 88.49 142.08 98.09L147.93 128.59C147.99 128.9 148.02 129.21 148.03 129.53C148.01 132.13 145.91 134.23 143.32 134.23z M117.33 68.49C110.3 68.49 104.58 62.77 104.58 55.74C104.58 48.71 110.3 42.99 117.33 42.99S130.08 48.71 130.08 55.74C130.09 62.77 124.36 68.49 117.33 68.49zM117.33 50.74C114.57 50.74 112.33 52.98 112.33 55.74S114.57 60.74 117.33 60.74S122.33 58.5 122.33 55.74S120.09 50.74 117.33 50.74z M85.07 68.49C78.04 68.49 72.32 62.77 72.32 55.74C72.32 48.71 78.04 42.99 85.07 42.99C92.1 42.99 97.82 48.71 97.82 55.74C97.82 62.77 92.1 68.49 85.07 68.49zM85.07 50.74C82.31 50.74 80.07 52.98 80.07 55.74S82.31 60.74 85.07 60.74C87.83 60.74 90.07 58.5 90.07 55.74S87.83 50.74 85.07 50.74z M132.57 80.25H71.62C69.04 80.25 66.94 78.15 66.94 75.56C66.94 72.97 69.04 70.87 71.62 70.87H132.57C135.15 70.87 137.25 72.97 137.25 75.56C137.26 78.15 135.15 80.25 132.57 80.25z M99.93 102.08C98.86 102.08 97.79 102.49 96.96 103.32C96.56 103.72 81.27 118.88 81.27 118.88L81.27 118.88C80.46 119.68 80.02 120.75 80.02 121.89S80.47 124.1 81.27 124.9C82.94 126.55 85.64 126.55 87.31 124.9L95.64 116.64V145.45C95.64 147.68 97.46 149.49 99.7 149.49H100.11C102.35 149.49 104.18 147.67 104.18 145.44V116.57L112.73 125.05C114.39 126.7 117.1 126.7 118.77 125.05C119.58 124.25 120.03 123.18 120.03 122.04S119.58 119.83 118.77 119.03L102.94 103.33C102.07 102.5 101 102.08 99.93 102.08z" />
    <glyph glyph-name="circle-trolley-minus"
      unicode="&#xEA1D;"
      horiz-adv-x="200" d=" M100 200C44.77 200 0 155.23 0 100C0 44.77 44.77 0 100 0C155.23 0 200 44.77 200 100C200 155.23 155.23 200 100 200zM100 10C50.37 10 10 50.37 10 100C10 149.62 50.37 190 100 190C149.62 190 190 149.62 190 100S149.62 10 100 10z M82.48 127.98H117.52C119.68 127.98 121.43 129.99 121.43 132.48S119.68 136.98 117.52 136.98H82.48C80.32 136.98 78.57 134.97 78.57 132.48S80.32 127.98 82.48 127.98z M143.32 134.23C141.71 134.23 140.27 133.42 139.43 132.15L132.87 99.87C131.81 94.74 129.69 93.01 124.5 93.01L73.4 93L59.84 140.92C59.16 143.31 56.95 144.98 54.47 144.98H41.15C38.57 144.98 36.46 142.88 36.46 140.29C36.46 137.71 38.56 135.6 41.15 135.6H51.59L64.57 89.71L64.69 89.36C65.94 85.61 68.64 83.62 72.52 83.62H124.5C134.37 83.62 140.29 88.49 142.08 98.09L147.93 128.59C147.99 128.9 148.02 129.21 148.03 129.53C148.01 132.13 145.91 134.23 143.32 134.23z M117.33 68.49C110.3 68.49 104.58 62.77 104.58 55.74C104.58 48.71 110.3 42.99 117.33 42.99S130.08 48.71 130.08 55.74C130.09 62.77 124.36 68.49 117.33 68.49zM117.33 50.74C114.57 50.74 112.33 52.98 112.33 55.74S114.57 60.74 117.33 60.74S122.33 58.5 122.33 55.74S120.09 50.74 117.33 50.74z M85.07 68.49C78.04 68.49 72.32 62.77 72.32 55.74C72.32 48.71 78.04 42.99 85.07 42.99C92.1 42.99 97.82 48.71 97.82 55.74C97.82 62.77 92.1 68.49 85.07 68.49zM85.07 50.74C82.31 50.74 80.07 52.98 80.07 55.74S82.31 60.74 85.07 60.74C87.83 60.74 90.07 58.5 90.07 55.74S87.83 50.74 85.07 50.74z M132.57 80.25H71.62C69.04 80.25 66.94 78.15 66.94 75.56C66.94 72.97 69.04 70.87 71.62 70.87H132.57C135.15 70.87 137.25 72.97 137.25 75.56C137.26 78.15 135.15 80.25 132.57 80.25z" />
    <glyph glyph-name="circle-trolley-plus"
      unicode="&#xEA1C;"
      horiz-adv-x="200" d=" M100 200C44.77 200 0 155.23 0 100C0 44.77 44.77 0 100 0C155.23 0 200 44.77 200 100C200 155.23 155.23 200 100 200zM100 10C50.37 10 10 50.37 10 100C10 149.62 50.37 190 100 190C149.62 190 190 149.62 190 100S149.62 10 100 10z M80.81 127.98H97.18V112.29C97.18 109.8 99.19 107.79 101.68 107.79S106.18 109.8 106.18 112.29V127.98H121.19C123.68 127.98 125.69 129.99 125.69 132.48S123.68 136.98 121.19 136.98H106.18V152.67C106.18 155.16 104.17 157.17 101.68 157.17S97.18 155.16 97.18 152.67V136.98H80.81C78.32 136.98 76.31 134.97 76.31 132.48S78.33 127.98 80.81 127.98z M143.32 134.23C141.71 134.23 140.27 133.42 139.43 132.15L132.87 99.87C131.81 94.74 129.69 93.01 124.5 93.01L73.4 93L59.84 140.92C59.16 143.31 56.95 144.98 54.47 144.98H41.15C38.57 144.98 36.46 142.88 36.46 140.29C36.46 137.71 38.56 135.6 41.15 135.6H51.59L64.57 89.71L64.69 89.36C65.94 85.61 68.64 83.62 72.52 83.62H124.5C134.37 83.62 140.29 88.49 142.08 98.09L147.93 128.59C147.99 128.9 148.02 129.21 148.03 129.53C148.01 132.13 145.91 134.23 143.32 134.23z M117.33 68.49C110.3 68.49 104.58 62.77 104.58 55.74C104.58 48.71 110.3 42.99 117.33 42.99S130.08 48.71 130.08 55.74C130.09 62.77 124.36 68.49 117.33 68.49zM117.33 50.74C114.57 50.74 112.33 52.98 112.33 55.74S114.57 60.74 117.33 60.74S122.33 58.5 122.33 55.74S120.09 50.74 117.33 50.74z M85.07 68.49C78.04 68.49 72.32 62.77 72.32 55.74C72.32 48.71 78.04 42.99 85.07 42.99C92.1 42.99 97.82 48.71 97.82 55.74C97.82 62.77 92.1 68.49 85.07 68.49zM85.07 50.74C82.31 50.74 80.07 52.98 80.07 55.74S82.31 60.74 85.07 60.74C87.83 60.74 90.07 58.5 90.07 55.74S87.83 50.74 85.07 50.74z M132.57 80.25H71.62C69.04 80.25 66.94 78.15 66.94 75.56C66.94 72.97 69.04 70.87 71.62 70.87H132.57C135.15 70.87 137.25 72.97 137.25 75.56C137.26 78.15 135.15 80.25 132.57 80.25z" />
    <glyph glyph-name="circle_big"
      unicode="&#xEA1E;"
      horiz-adv-x="200" d=" M100 190.001C149.625 190.001 190 149.627 190 100.001C190 50.376 149.625 10.001 100 10.001C50.373 10.001 10 50.375 10 100.001S50.373 190.001 100 190.001M100 200.001C44.771 200.001 0 155.23 0 100.001C0 44.772 44.771 0.001 100 0.001C155.229 0.001 200 44.772 200 100.001C200 155.23 155.229 200.001 100 200.001L100 200.001z" />
    <glyph glyph-name="circle_small"
      unicode="&#xEA1F;"
      horiz-adv-x="200" d=" M100 190.001C149.625 190.001 190 149.627 190 100.001C190 50.376 149.625 10.001 100 10.001C50.373 10.001 10 50.375 10 100.001S50.373 190.001 100 190.001M100 200.001C44.771 200.001 0 155.23 0 100.001C0 44.772 44.771 0.001 100 0.001C155.229 0.001 200 44.772 200 100.001C200 155.23 155.229 200.001 100 200.001L100 200.001z" />
    <glyph glyph-name="close"
      unicode="&#xEA20;"
      horiz-adv-x="200" d=" M100 190.001C149.627 190.001 190 149.627 190 100.001S149.627 10.001 100 10.001C50.375 10.001 10 50.375 10 100.001S50.375 190.001 100 190.001M100 200.001C44.771 200.001 0 155.23 0 100.001C0 44.772 44.771 0.001 100 0.001C155.229 0.001 200 44.772 200 100.001C200 155.23 155.23 200.001 100 200.001L100 200.001z M131.863 75.227L107.084 100.008L131.865 124.79C133.822 126.746 133.822 129.914 131.865 131.869C129.912 133.823 126.744 133.823 124.789 131.869L100.006 107.085L75.229 131.865C73.27 133.823 70.094 133.823 68.137 131.865C66.178 129.906 66.178 126.732 68.137 124.773L92.916 99.994L68.133 75.21C66.18 73.257 66.18 70.089 68.133 68.134C69.11 67.157 70.393 66.667 71.672 66.667C72.953 66.667 74.234 67.157 75.213 68.134L99.994 92.916L124.774 68.137C125.753 67.158 127.037 66.667 128.318 66.667C129.601 66.667 130.884 67.157 131.863 68.137C133.824 70.096 133.824 73.27 131.863 75.227z" />
    <glyph glyph-name="close_info"
      unicode="&#xEA21;"
      horiz-adv-x="147" d=" M80.586 100L145.531 164.945C147.49 166.903 147.49 170.074 145.531 172.032C143.574 173.99 140.401 173.99 138.444 172.032L73.5 107.087L8.555 172.032C6.598 173.99 3.424 173.99 1.467 172.032C-0.489 170.074 -0.489 166.903 1.467 164.945L66.414 100L1.469 35.055C-0.488 33.098 -0.488 29.925 1.469 27.969C2.448 26.99 3.731 26.5 5.013 26.5S7.578 26.99 8.556 27.969L73.5 92.913L138.445 27.969C139.424 26.99 140.707 26.5 141.99 26.5C143.27 26.5 144.552 26.99 145.531 27.969C147.49 29.925 147.49 33.098 145.531 35.055L80.586 100z" />
    <glyph glyph-name="contact"
      unicode="&#xEA22;"
      horiz-adv-x="41.02" d=" M20.51 -0.001C9.201 -0.001 0 9.2 0 20.511C0 31.821 9.201 41.022 20.51 41.022C31.818 41.022 41.019 31.82 41.019 20.51C41.02 9.2 31.818 -0.001 20.51 -0.001zM20.51 39.522C10.028 39.522 1.5 30.994 1.5 20.511S10.028 1.499 20.511 1.499C30.993 1.499 39.52 10.028 39.52 20.511S30.992 39.522 20.51 39.522z M25.883 16.551L21.925 20.509L25.883 24.468C26.274 24.859 26.274 25.491 25.883 25.882S24.86 26.273 24.469 25.882L20.511 21.923L16.552 25.882C16.161 26.273 15.529 26.273 15.138 25.882S14.747 24.859 15.138 24.468L19.096 20.509L15.137 16.551C14.746 16.16 14.746 15.528 15.137 15.137C15.332 14.942 15.588 14.844 15.844 14.844S16.356 14.942 16.551 15.137L20.51 19.095L24.468 15.137C24.663 14.942 24.919 14.844 25.175 14.844S25.687 14.942 25.882 15.137C26.273 15.528 26.273 16.161 25.883 16.551z" />
    <glyph glyph-name="dot"
      unicode="&#xEA23;"
      horiz-adv-x="200" d=" M0 100C0 44.7715250169206 44.7715250169206 0 100 0C155.2284749830794 0 200 44.7715250169206 200 100C200 155.2284749830794 155.2284749830794 200 100 200C44.7715250169206 200 0 155.2284749830794 0 100z" />
    <glyph glyph-name="dropdown"
      unicode="&#xEA24;"
      horiz-adv-x="200" d=" M100.001 47.501C98.653 47.501 97.364 48.033 96.413 48.984L1.486 143.847C-0.495 145.826 -0.495 149.036 1.486 151.016C3.465 152.996 6.679 152.994 8.661 151.016L100.001 59.738L191.339 151.016C193.322 152.995 196.53 152.995 198.514 151.016C200.493 149.037 200.493 145.826 198.514 143.847L103.587 48.984C102.637 48.033 101.347 47.501 100.001 47.501z" />
    <glyph glyph-name="electricity"
      unicode="&#xEA25;"
      horiz-adv-x="129" d=" M76.862 0.001C76.563 0.001 76.262 0.025 75.96 0.084C73.585 0.52 71.86 2.587 71.86 5.001V80.002H40.678C36.197 80.006 32.351 82.807 31.108 86.965L1.12 187.127C0.176 190.28 0.735 193.673 2.62 196.205C4.417 198.618 7.198 200.001 10.255 200.001H90.182C92.943 200.001 95.182 197.763 95.182 195.001S92.943 190.001 90.182 190.001H10.698C10.698 189.999 10.698 189.998 10.698 189.995L40.633 90.021L73.404 90C77.996 89.994 81.869 86.076 81.861 81.446V32.333L118.809 129.945C118.816 129.964 118.824 129.982 118.83 129.999H78.526C77.097 130.02 73.069 129.998 70.714 133.313C68.247 136.792 69.755 141.084 70.479 143.147L77.076 164.79C77.879 167.434 80.678 168.923 83.315 168.115C85.957 167.309 87.445 164.515 86.638 161.873L79.978 140.034C79.976 140.023 79.971 140.01 79.966 139.998H120.155C120.157 139.998 120.159 139.998 120.161 139.998C123.14 139.998 125.766 138.657 127.372 136.316C129.225 133.613 129.514 129.894 128.146 126.367L81.536 3.227C80.79 1.26 78.909 0.001 76.862 0.001z" />
    <glyph glyph-name="eye"
      unicode="&#xEA26;"
      horiz-adv-x="330.053" d=" M164.846 0C128.292 0 98.554 29.738 98.554 66.292S128.292 132.584 164.846 132.584S231.138 102.846 231.138 66.292S201.4 0 164.846 0zM164.846 103.881C144.119 103.881 127.257 87.019 127.257 66.292S144.12 28.703 164.846 28.703S202.435 45.565 202.435 66.292S185.573 103.881 164.846 103.881z M315.713 99.15C311.237 99.149 306.828 101.237 304.025 105.157C274.865 145.954 221.536 171.298 164.846 171.298C107.56 171.298 55.653 146.742 25.993 105.611C21.358 99.182 12.389 97.726 5.958 102.364C-0.471 107 -1.925 115.969 2.711 122.399C37.752 170.99 98.363 200 164.846 200C231.639 200 292.4 170.784 327.377 121.847C331.9840000000001 115.399 330.4940000000001 106.436 324.0470000000001 101.826C321.518 100.018 318.601 99.15 315.713 99.15z" />
    <glyph glyph-name="eye_slash"
      unicode="&#xEA27;"
      horiz-adv-x="330.053" d=" M164.846 0C128.292 0 98.554 29.738 98.554 66.292S128.292 132.584 164.846 132.584S231.138 102.846 231.138 66.292S201.4 0 164.846 0zM164.846 103.881C144.119 103.881 127.257 87.019 127.257 66.292S144.12 28.703 164.846 28.703S202.435 45.565 202.435 66.292S185.573 103.881 164.846 103.881z M315.713 99.15C311.237 99.149 306.828 101.237 304.025 105.157C274.865 145.954 221.536 171.298 164.846 171.298C107.56 171.298 55.653 146.742 25.993 105.611C21.358 99.182 12.389 97.726 5.958 102.364C-0.471 107 -1.925 115.969 2.711 122.399C37.752 170.99 98.363 200 164.846 200C231.639 200 292.4 170.784 327.377 121.847C331.9840000000001 115.399 330.4940000000001 106.436 324.0470000000001 101.826C321.518 100.018 318.601 99.15 315.713 99.15z" />
    <glyph glyph-name="facebook-ellipse"
      unicode="&#xEA28;"
      horiz-adv-x="200" d=" M100 200C44.771 200 0 155.229 0 100C0 44.771 44.771 0 100 0C155.228 0 200 44.771 200 100C200 155.229 155.229 200 100 200zM121.273 124.761H109.119C107.685 124.761 106.082 122.788 106.082 120.144V112.31H121.273V97.022H106.082V60H90.881V97.021H78.727V112.31H90.881V120.005C90.881 131.03 99.061 140 109.119 140H121.273V124.761z" />
    <glyph glyph-name="facebook"
      unicode="&#xEA29;"
      horiz-adv-x="106" d=" M106 161.688H75.719C72.147 161.688 68.155 156.773 68.155 150.185V130.667H106V92.578H68.152V0.343H30.281V92.578H0V130.668H30.281V149.84C30.281 177.307 50.66 199.657 75.719 199.657H106V161.688z" />
    <glyph glyph-name="fax"
      unicode="&#xEA2A;"
      horiz-adv-x="200" d=" M195 30.001C197.762 30.001 200 32.24 200 35.001V90.001C200 95.515 195.516 100 190 100H179.998V138.313C179.998 144.757 174.758 150 168.312 150H159.998V190.595C159.998 195.78 155.871 199.999 150.797 199.999H49.201C44.127 199.999 40 195.78 40 190.595V149.999H31.687C25.244 149.999 20 144.757 20 138.312V99.999H10.002C4.486 99.999 0.002 95.515 0.002 90V10C0.002 4.485 4.486 0 10.002 0H195C197.762 0 200 2.24 200 5C200 7.761 197.762 10 195 10H10.002V90H190V35C190 32.24 192.24 30.001 195 30.001zM168.313 139.999C169.244 139.999 170 139.242 170 138.312V99.999H160V139.999H168.313zM149.998 189.999V100H50V189.999H149.998zM30 138.313C30 139.243 30.756 140 31.687 140H40V100H30V138.313L30 138.313z M150 60C150 54.4771525016921 154.4771525016921 50 160 50C165.5228474983079 50 170 54.4771525016921 170 60C170 65.5228474983079 165.5228474983079 70 160 70C154.4771525016921 70 150 65.5228474983079 150 60z" />
    <glyph glyph-name="fill-circle-archive"
      unicode="&#xEA2B;"
      horiz-adv-x="200" d=" M89.65 100C88.96 100 88.4 99.44 88.4 98.75S88.96 97.5 89.65 97.5H110.34C111.03 97.5 111.59 98.06 111.59 98.75S111.03 100 110.34 100H89.65z M100 200C44.77 200 0 155.23 0 100S44.77 0 100 0S200 44.77 200 100S155.23 200 100 200zM151.17 76.24C151.17 73.78 149.17 71.78 146.71 71.78C144.25 71.78 142.25 73.78 142.25 76.24V115.21H57.75L57.75 65.95H146.71C149.17 65.95 151.17 63.95 151.17 61.49S149.17 57.03 146.71 57.03H55.75C51.94 57.03 48.83 60.13 48.83 63.95L48.84 136.06C48.84 139.87 51.94 142.98 55.76 142.98H144.25C148.06 142.98 151.17 139.88 151.17 136.06V76.24zM119.6 98.75C119.6 93.65 115.45 89.5 110.35 89.5H89.65C84.55 89.5 80.4 93.65 80.4 98.75S84.55 108 89.65 108H110.34C115.45 108 119.6 103.85 119.6 98.75z M57.76 134.06H142.25V124.13H57.76V134.06z" />
    <glyph glyph-name="fill-circle-arrow-download"
      unicode="&#xEA2C;"
      horiz-adv-x="200" d=" M100 200C44.77 200 0 155.23 0 100S44.77 0 100 0S200 44.77 200 100S155.23 200 100 200zM131.87 89.8L103.54 61.47C102.57 60.49 101.28 60 100 60C98.72 60 97.44 60.49 96.46 61.47L68.13 89.8C66.18 91.75 66.18 94.92 68.13 96.87C70.08 98.82 73.25 98.82 75.2 96.87L95 77.07V135C95 137.76 97.24 140 100 140S105 137.76 105 135V77.07L124.8 96.87C126.75 98.82 129.92 98.82 131.87 96.87C133.82 94.91 133.82 91.75 131.87 89.8z" />
    <glyph glyph-name="fill-circle-arrow-left"
      unicode="&#xEA2D;"
      horiz-adv-x="200" d=" M0 100C0 44.77 44.77 0 100 0S200 44.77 200 100C200 155.23 155.23 200 100 200C44.77 200 0 155.23 0 100zM78.33 100.05C78.33 101.38 78.86 102.65 79.8 103.59L108.03 131.86C109.99 133.82 113.15 133.82 115.11 131.86C117.06 129.9 117.06 126.73 115.11 124.77L90.42 100.05L115.2 75.23C117.15 73.27 117.15 70.1 115.2 68.14C114.22 67.16 112.94 66.67 111.66 66.67C110.38 66.67 109.1 67.16 108.12 68.14L79.8 96.5C78.86 97.44 78.33 98.72 78.33 100.05z" />
    <glyph glyph-name="fill-circle-arrow-right-up-67"
      unicode="&#xEA2E;"
      horiz-adv-x="200" d=" M100 200C44.77 200 0 155.23 0 100S44.77 0 100 0S200 44.77 200 100S155.23 200 100 200zM130 85.02C130 82.24 127.74 79.98 124.96 79.98C122.18 79.98 119.92 82.24 119.92 85.02V112.79L78.61 71.48C76.64 69.51 73.45 69.51 71.48 71.48C69.51 73.45 69.51 76.64 71.48 78.61L112.79 119.92L85.02 119.92C82.24 119.92 79.98 122.18 79.98 124.96C79.98 127.75 82.24 130 85.02 130L124.96 130C126.35 130 127.61 129.44 128.52 128.5200000000001C129.43 127.61 130 126.35 130 124.95V85.02z" />
    <glyph glyph-name="fill-circle-arrow-right-up-68"
      unicode="&#xEA2F;"
      horiz-adv-x="200" d=" M100 200C44.77 200 0 155.23 0 100S44.77 0 100 0S200 44.77 200 100S155.23 200 100 200zM130 85.02C130 82.24 127.74 79.98 124.96 79.98C122.18 79.98 119.92 82.24 119.92 85.02V112.79L78.61 71.48C76.64 69.51 73.45 69.51 71.48 71.48C69.51 73.45 69.51 76.64 71.48 78.61L112.79 119.92L85.02 119.92C82.24 119.92 79.98 122.18 79.98 124.96C79.98 127.75 82.24 130 85.02 130L124.96 130C126.35 130 127.61 129.44 128.52 128.5200000000001C129.43 127.61 130 126.35 130 124.95V85.02z" />
    <glyph glyph-name="fill-circle-arrow-right"
      unicode="&#xEA30;"
      horiz-adv-x="200" d=" M100 200C44.77 200 0 155.23 0 100C0 44.77 44.77 0 100 0S200 44.77 200 100C200 155.23 155.23 200 100 200zM120.2 96.5L91.88 68.13C90.9 67.15 89.62 66.66 88.34 66.66C87.06 66.66 85.78 67.15 84.8 68.13C82.85 70.09 82.85 73.26 84.8 75.22L109.58 100.04L84.89 124.77C82.94 126.73 82.94 129.9 84.89 131.86C86.84 133.82 90.01 133.82 91.97 131.86L120.2 103.59C121.14 102.65 121.67 101.38 121.67 100.05S121.14 97.44 120.2 96.5z" />
    <glyph glyph-name="fill-circle-close"
      unicode="&#xEA31;"
      horiz-adv-x="200" d=" M100 200C44.77 200 0 155.23 0 100S44.77 0 100 0S200 44.77 200 100S155.23 200 100 200zM131.86 68.14C130.88 67.16 129.6 66.67 128.32 66.67C127.04 66.67 125.75 67.16 124.78 68.14L100 92.92L75.22 68.14C74.24 67.16 72.96 66.67 71.68 66.67C70.4 66.67 69.12 67.16 68.14 68.14C66.19 70.1 66.19 73.26 68.14 75.22L92.92 100L68.14 124.77C66.18 126.73 66.18 129.9 68.14 131.86C70.1 133.82 73.27 133.82 75.23 131.86L100.01 107.08L124.79 131.86C126.74 133.81 129.91 133.81 131.87 131.86C133.83 129.9 133.83 126.74 131.87 124.78L107.09 100L131.87 75.22C133.82 73.27 133.82 70.1 131.86 68.14z" />
    <glyph glyph-name="fill-circle-delete"
      unicode="&#xEA32;"
      horiz-adv-x="200" d=" M100 150.55C97.73 150.55 95.36 149.74 93.9 148.03H106.1C104.64 149.74 102.27 150.55 100 150.55z M100 200C44.77 200 0 155.23 0 100C0 44.77 44.77 0 100 0S200 44.77 200 100C200 155.23 155.23 200 100 200zM146.61 126.52L136.27 61.8C135.83 59.07 133.27 57.22 130.54 57.65C127.81 58.09 125.96 60.65 126.39 63.38L135.8 122.31H64.19L75.73 49.45H128.55C131.31 49.45 133.55 47.21 133.55 44.45C133.55 41.69 131.31 39.45 128.55 39.45H71.46C69 39.45 66.9 41.24 66.52 43.67L53.4 126.53C53.17 127.97 53.59 129.45 54.54 130.56C55.49 131.67 56.88 132.31 58.34 132.31H141.67C143.13 132.31 144.52 131.67 145.47 130.56C146.42 129.44 146.84 127.96 146.61 126.52zM85.92 57.95C85.65 57.91 85.39 57.89 85.13 57.89C82.71 57.89 80.59 59.65 80.2 62.11L72.5 110.74C72.07 113.47 73.93 116.03 76.66 116.46C79.39 116.9 81.95 115.03 82.38 112.3L90.08 63.67C90.51 60.95 88.65 58.39 85.92 57.95zM141.67 138.03H58.33C55.57 138.03 53.33 140.27 53.33 143.03C53.33 145.79 55.57 148.03 58.33 148.03H83C84.8 155.39 91.5 160.55 100 160.55C108.5 160.55 115.2 155.38 117 148.03H141.66C144.42 148.03 146.66 145.79 146.66 143.03C146.67 140.27 144.43 138.03 141.67 138.03z" />
    <glyph glyph-name="fill-circle-docs-copy"
      unicode="&#xEA33;"
      horiz-adv-x="200" d=" M66.17 128H118.84V57H66.17V128z M100 200C44.77 200 0 155.23 0 100S44.77 0 100 0S200 44.77 200 100S155.23 200 100 200zM142.83 82.53C142.83 80.05 140.81 78.03 138.33 78.03C137.13 78.03 136 78.5 135.15 79.35C134.3 80.2 133.83 81.33 133.83 82.53V143H81.17V137H122.5C125.44 137 127.83 134.61 127.83 131.67V72H138.33C140.81 72 142.83 69.98 142.83 67.5S140.81 63 138.33 63H127.83V53.33C127.83 50.39 125.44 48 122.5 48H62.5C59.56 48 57.17 50.39 57.17 53.33V131.67C57.17 134.61 59.56 137 62.5 137H72.17V146.67C72.17 149.61 74.56 152 77.5 152H137.5C140.44 152 142.83 149.61 142.83 146.67V82.53z" />
    <glyph glyph-name="fill-circle-edit"
      unicode="&#xEA34;"
      horiz-adv-x="200" d=" M100 200C44.77 200 0 155.23 0 100C0 44.77 44.77 0 100 0C155.23 0 200 44.77 200 100C200 155.23 155.23 200 100 200L100 200z M151.5 132.47L130.46 153.53C129.52 154.47 128.25 155 126.92 155S124.32 154.47 123.38 153.53L61.3 91.44L50.56 80.78C49.62 79.84 49.09 78.57 49.08 77.24L49.03 56.01C49.03 54.68 49.56 53.4 50.5 52.46C51.44 51.52 52.71 51 54.03 51C54.04 51 54.04 51 54.05 51L75.24 51.09C76.57 51.1 77.85 51.63 78.78 52.58L90.22 64.2L151.47 125.39C152.41 126.33 152.94 127.6 152.94 128.93C152.96 130.26 152.43 131.53 151.5 132.47zM83.15 71.26L73.14 61.1L59.06 61.04L59.09 75.16L68.37 84.37L105.5 121.5L119.46 107.53L83.15 71.26zM126.53 114.59L112.57 128.57L126.92 142.92L140.89 128.94L126.53 114.59z" />
    <glyph glyph-name="fill-circle-eye-closed"
      unicode="&#xEA35;"
      horiz-adv-x="200" d=" M58.8 80.95C67.43 73.92 80.64 67.05 99.5 66.69C99.94 66.68 100.37 66.68 100.8 66.68C122.8 66.68 137.5 77.59 143.61 83.22C138.11 80.82 131.76 78.49 124.74 76.66C108.25 72.36 84.28 70.08 58.8 80.95z M100.81 133.91C67.03 134.53 49.78 110.85 44.23 101.36C67.56 84.44 93.66 79.56 121.85 86.84C137.64 90.92 149.94 97.93 155.7 101.63C150.34 110.81 133.83 133.31 100.81 133.91z M100 200C44.77 200 0 155.23 0 100C0 44.77 44.77 0 100 0C155.23 0 200 44.77 200 100C200 155.23 155.23 200 100 200zM165.79 95.71C165.44 95.44 160.91 92.02 153.27 87.92C153.61 87.75 153.94 87.54 154.26 87.29C156.53 85.47 156.9 82.13 155.08 79.86C154.97 79.73 154.09 78.63 152.42 76.94L154.03 70.93C154.79 68.11 153.11 65.2 150.29 64.45C149.85 64.33 149.38 64.27 148.92 64.27C146.53 64.27 144.43 65.88 143.81 68.2L143.48 69.44C141.2 67.83 138.81 66.35 136.36 65.01L137.26 59.89C137.51 58.5 137.19 57.09 136.38 55.93S134.35 54 132.96 53.75C132.65 53.7 132.34 53.67 132.04 53.67C129.47 53.67 127.28 55.51 126.83 58.05L126.39 60.52C124.32 59.77 122.21 59.11 120.06 58.55L120.44 54.21C120.7 51.3 118.54 48.73 115.63 48.4699999999999C115.48 48.46 115.32 48.4499999999999 115.16 48.4499999999999C112.4 48.4499999999999 110.13 50.5299999999999 109.89 53.2799999999999L109.6 56.5999999999999C107.62 56.37 105.61 56.2299999999999 103.6 56.15V52.39C103.6 49.47 101.22 47.1 98.31 47.1S93.02 49.47 93.02 52.39V56.45C91.01 56.64 89.02 56.9 87 57.24L86.73 54.14C86.48 51.22 83.97 49.0299999999999 80.97 49.33C79.59 49.45 78.31 50.12 77.4 51.2C76.49 52.28 76.06 53.66 76.18 55.06L76.59 59.71C74.42 60.39 72.28 61.17 70.2 62.05L69.8 59.81C69.3 56.98 66.58 55 63.67 55.52C60.8 56.03 58.87 58.78 59.38 61.65L60.34 67.12C57.82 68.67 55.38 70.39 53.05 72.25L52.83 71.42C52.21 69.11 50.11 67.5 47.72 67.5C47.25 67.5 46.79 67.56 46.34 67.68C44.98 68.04 43.84 68.92 43.13 70.14S42.24 72.79 42.6 74.16L44.29 80.47C36.01 89.58 32.58 97.68 32.55 97.77C31.99 99.11 32.01 100.64 32.61 101.97C32.8 102.39 52.25 144.52 99.55 144.52C100.04 144.52 100.52 144.52 101.01 144.51C148.56 143.64 167.25 102.47 167.43 102.05L167.43 102.05C168.41 99.8 167.73 97.19 165.79 95.71z" />
    <glyph glyph-name="fill-circle-eye-open"
      unicode="&#xEA36;"
      horiz-adv-x="200" d=" M110.92 132.7C107.19 133.35 103.54 133.69 100.05 133.69C96.5 133.69 92.79 133.35 89.02 132.68C80.89 128.55 75.65 120.07 75.65 110.99C75.65 97.56 86.57 86.64 100 86.64C113.43 86.64 124.35 97.56 124.35 110.99C124.34 120.09 119.08 128.58 110.92 132.7zM100 95.8C91.63 95.8 84.83 102.61 84.83 110.97S91.63 126.15 100 126.15S115.17 119.34 115.17 110.98S108.36 95.8 100 95.8z M95.41 110.98C95.41 108.4450129982767 97.4650129982767 106.39 100 106.39C102.5349870017233 106.39 104.59 108.4450129982767 104.59 110.98C104.59 113.5149870017234 102.5349870017233 115.57 100 115.57C97.4650129982767 115.57 95.41 113.5149870017234 95.41 110.98z M100 200C44.77 200 0 155.23 0 100C0 44.77 44.77 0 100 0C155.23 0 200 44.77 200 100C200 155.23 155.23 200 100 200zM167.57 97.94C167.1 96.61 166.15 95.53 164.87 94.92C162.24 93.66 159.07 94.76 157.8 97.39C152.19 109.01 143.13 118.67 131.9 125.12C133.89 120.68 134.92 115.89 134.92 110.98C134.92 91.72 119.25 76.04 99.98 76.04S65.04 91.71 65.04 110.98C65.04 115.84 66.06 120.59 68.01 125C57.58 118.95 48.99 110.07 43.37 99.46C54.19 79.29 76.29 66.32 99.97 66.32C117.93 66.32 135.13 73.64 147.18 86.39C149.18 88.51 152.5400000000001 88.61 154.66 86.61C156.78 84.6 156.88 81.25 154.88 79.13C140.84 64.26 120.83 55.74 99.97 55.74C71.17 55.74 44.74 72 32.63 97.16L32.5 97.48C31.94 98.86 31.98 100.4 32.62 101.74C44.97 127.58 71.43 144.28 100.03 144.28C128.52 144.28 154.93 127.68 167.32 102V102C167.96 100.71 168.04 99.28 167.57 97.94z" />
    <glyph glyph-name="fill-circle-meeting"
      unicode="&#xEA37;"
      horiz-adv-x="200" d=" M108.84 129.99C108.5 127.4 107.98 124.93 107.39 123.12C105.5 117.34 100.01 110.17 94.02 105.69C91.77 104 89.3 102.53 86.68 101.31C85.1 99.94 84.83 97.54 86.1 95.86C87.02 94.64 88.53 94.05 90.04 94.31C90.13 94.33 90.2 94.34 90.26 94.35L93.98 95.34C97.83 96.61 101.44 98.49 104.71 100.94C108.21 103.56 111.59 107.14 113.77 110.51C113.82 110.59 114.16 111.02 114.16 111.02C114.98 111.95 115.96 112.51 117.06 112.73C117.36 112.79 117.68 112.8 118 112.77C118.72 112.69 120.07 112.38 121.28 111.25L128.22 104.67L138.62 94.54L150.34 106.23L117.68 138.75C112.05 133.15 109.79 130.91 108.84 129.99z M100 200C44.77 200 0 155.23 0 100S44.77 0 100 0S200 44.77 200 100S155.23 200 100 200zM140.82 72.8C138.06 69.98 134.25 68.45 130.37 68.58C129.86 65.87 128.55 63.35 126.59 61.35C123.38 58.07 118.88 56.6 114.43 57.26C113.8 55.01 112.61 52.96 110.94 51.26C108.18 48.44 104.51 47 100.84 47C98.34 47 95.82 47.67 93.58 49.02L93.36 48.79L91.87 50.16L51.45 89.6C50.49 90.53 49.95 91.78 49.94 93.12C49.92 94.46 50.43 95.73 51.37 96.69C53.31 98.67 56.5 98.71 58.48 96.77L97.81 58.37C99.39 56.83 101.86 56.66 103.43 57.97C104.32 58.71 104.84 59.75 104.89 60.9C104.94 62.03 104.51 63.13 103.71 63.93L103.54 64.1L101.93 65.53C100.9 66.53 100.36 67.78 100.35 69.12C100.33 70.46 100.84 71.73 101.79 72.69C103.72 74.67 106.91 74.7 108.89 72.77L113.44 68.5C115.05 66.94 117.51 66.76 119.09 68.07C119.98 68.81 120.5 69.85 120.55 71C120.6 72.13 120.17 73.23 119.37 74.03L116.21 76.91C115.2 77.89 114.66 79.14 114.65 80.48C114.63 81.82 115.15 83.09 116.09 84.05C118.03 86.03 121.21 86.06 123.19 84.13L127.69 79.94C129.27 78.39 131.74 78.21 133.32 79.52C134.21 80.26 134.73 81.3 134.78 82.45C134.83 83.58 134.4 84.68 133.6 85.48L118.4 100.29C116.02 97.42 113.46 94.95 110.75 92.92C105.09 88.67 98.72 85.81 91.81 84.4L89.72 83.97L89.69 84.21C84.31 84.06 79.33 86.97 76.79 91.84C74.13 96.93 75.18 103.9 79.24 108.07C80.67 109.54 82.39 110.68 84.8 111.76C86.11 112.4999999999999 87.7 113.52 88.7 114.27C92.38 117.03 94.55 119.49 96.1 122.74L81.1 137.69L46.08 102.76C45.11 101.79 43.83 101.26 42.46 101.26C41.09 101.26 39.8 101.79 38.83 102.76C37.86 103.72 37.33 105.01 37.33 106.38C37.33 107.75 37.87 109.04 38.83 110L77.41 148.5C79.44 150.52 82.45 150.55 84.41 148.58C84.56 148.43 94.3 138.71 99.14 133.88C99.39 134.54 99.78 135.13 100.28 135.63L106.1 141.41C109.96 145.24 114.11 149.37 114.22 149.47C116.23 151.48 119.37 151.5 121.37 149.52L161.03 110.03C162.47 108.6 162.88 106.51 162.24 104.7L162.66 104.31L144.52 86.23C145.68 81.58 144.27 76.32 140.82 72.8z" />
    <glyph glyph-name="fill-circle-minus"
      unicode="&#xEA38;"
      horiz-adv-x="200" d=" M100 200C44.77 200 0 155.23 0 100S44.77 0 100 0S200 44.77 200 100S155.23 200 100 200zM140.05 94.98L59.95 94.98C57.18 94.98 54.94 97.22 54.94 99.99C54.94 101.38 55.5 102.63 56.41 103.54C57.32 104.45 58.57 105.01 59.96 105.01L140.06 105.01C142.83 105.01 145.07 102.77 145.07 100C145.06 97.23 142.82 94.99 140.05 94.98z" />
    <glyph glyph-name="fill-circle-plus"
      unicode="&#xEA39;"
      horiz-adv-x="200" d=" M100 200C44.77 200 0 155.23 0 100S44.77 0 100 0S200 44.77 200 100S155.23 200 100 200zM140.05 94.98L105.01 94.98L105.01 59.93C105.01 57.17 102.77 54.93 100.01 54.93C97.24 54.93 95 57.17 95 59.94L95 94.99L59.96 94.99C57.19 94.99 54.95 97.23 54.95 100C54.95 101.39 55.51 102.64 56.42 103.55C57.33 104.46 58.58 105.02 59.97 105.02L95.01 105.02L95.01 140.07C95.01 141.45 95.57 142.71 96.48 143.61C97.38 144.51 98.64 145.08 100.02 145.08C102.78 145.08 105.02 142.84 105.02 140.08L105.02 105.03H140.06C142.8300000000001 105.03 145.07 102.79 145.07 100.02C145.06 97.23 142.82 94.99 140.05 94.98z" />
    <glyph glyph-name="fill-circle-retweet"
      unicode="&#xEA3A;"
      horiz-adv-x="200" d=" M115.98 143C115.6 143 115.13 143 115.13 141.28C115.08 137.39 115.08 135.12 115.08 134.26V133.81V131.68L112.96 131.81C112.22 131.86 111.42 131.86 110.64 131.86C86.42 131.86 73.83 121.18 67.61 112.52C84.92 126.56 104.87 127.82 111.34 127.82C112.54 127.82 113.19 127.77 113.26 127.76L115.09 127.61V125.77C115.09 125.46 115.1 125.01 115.1 124.41C115.11 123.17 115.14 121.31 115.14 118.76C115.17 117.08 115.62 117.08 115.99 117.08C116.63 117.08 117.34 117.37 117.69 117.56C118.58 118.11 128.45 124.77 136.21 130.02C130.82 133.65 118.4 142.01 117.59 142.55C117.37 142.67 116.61 143 115.98 143z M86.66 72.27L84.83 72.42V74.26C84.83 74.57 84.82 75.02 84.82 75.62C84.81 76.86 84.78 78.72 84.78 81.27C84.75 82.95 84.3 82.95 83.93 82.95C83.29 82.95 82.58 82.66 82.23 82.47C81.34 81.92 71.47 75.26 63.71 70.01C69.1 66.38 81.52 58.02 82.33 57.48C82.53 57.35 83.29 57.02 83.92 57.02C84.3 57.02 84.77 57.02 84.77 58.74C84.82 62.63 84.82 64.9 84.82 65.76V66.21V68.34L86.94 68.21C87.68 68.16 88.48 68.16 89.26 68.16C113.48 68.16 126.07 78.84 132.29 87.5C114.98 73.46 95.03 72.2 88.56 72.2C87.38 72.21 86.73 72.26 86.66 72.27z M100 200C44.77 200 0 155.23 0 100S44.77 0 100 0S200 44.77 200 100S155.23 200 100 200zM146.48 95.9L146.47 95.86L146.46 95.84C146 94.21 143.3 85.63 135.4 77.14C128.27 69.56 115.3 60.43 93.71 59.3V58.67C93.71 55.46 92.76 52.86 90.92 50.96C89.15 49.07 86.67 48.03 83.91 48.03C80.54 48.03 78 49.55 77.29 50.02L56.79 63.9C55.02 64.86 53.72 66.6 53.32 68.56L53.31 68.62L53.3 68.68C53.24 69.09 53.18 69.58 53.18 70.06C53.18 70.48 53.18 71.04 53.34 71.63C53.77 73.6 55.06 75.3 56.81 76.23C63.07 80.49 76.65 89.6 77.68 90.26C79.06 91.1 81.44 92 83.97 92C86.69 92 89.18 90.98 90.95 89.14C92.79 87.24 93.77 84.63 93.81 81.57C97.46 81.93 102.37 82.73 107.74 84.45C118.45 87.89 127.39 93.85 134.33 102.2C135.7 103.78 137.66 104.69 139.69 104.69C140.88 104.69 141.94 104.43 142.92 103.91C145.85 102.39 147.32 99.09 146.48 95.9zM146.56 128.39C146.13 126.42 144.84 124.72 143.09 123.79C136.83 119.53 123.25 110.42 122.22 109.76C120.84 108.92 118.46 108.02 115.93 108.02C113.21 108.02 110.72 109.04 108.95 110.88C107.11 112.78 106.13 115.39 106.09 118.45C102.44 118.09 97.53 117.29 92.16 115.57C81.45 112.13 72.51 106.17 65.57 97.82C64.2 96.24 62.24 95.33 60.21 95.33C59.02 95.33 57.96 95.59 56.98 96.11C54.05 97.64 52.59 100.94 53.42 104.13L53.43 104.17L53.44 104.19C53.9 105.82 56.6 114.4 64.5 122.89C71.63 130.47 84.6 139.6 106.19 140.73V141.3600000000001C106.19 144.5700000000001 107.14 147.1700000000001 108.98 149.0700000000001C110.75 150.96 113.23 152 115.99 152C119.36 152 121.9 150.48 122.61 150.0100000000001L143.11 136.13C144.88 135.17 146.18 133.43 146.58 131.47L146.59 131.41L146.6 131.35C146.66 130.94 146.72 130.45 146.72 129.97C146.72 129.54 146.72 128.98 146.56 128.39z" />
    <glyph glyph-name="fill-circle-search"
      unicode="&#xEA3B;"
      horiz-adv-x="200" d=" M100 200C44.77 200 0 155.23 0 100S44.77 0 100 0S200 44.77 200 100S155.23 200 100 200zM151.09 49.22L150.78 48.91C149.84 47.97 148.6 47.5 147.37 47.5C146.13 47.5 144.9 47.97 143.96 48.91L107.68 85.17C100.49 79.7 91.53 77.01 82.47 77.62C64.06 78.83 49.08 93.61 47.63 111.98C46.76 122.99 50.72 133.76 58.49 141.52C66.27 149.3 77.05 153.25 88.07 152.38C106.09 150.95 120.83 136.3 122.37 118.3C122.79 113.35 122.26 108.47 120.8 103.8C120.3 102.21 119.26 101.01 117.86 100.43C116.48 99.85 114.91 99.95 113.44 100.71C111.1 101.92 110.2 104.27 111.04 106.98C112.16 110.61 112.51 114.4 112.06 118.26C110.58 130.99 99.8 141.27 86.98 142.18C79.11 142.74 71.36 139.86 65.77 134.29C60.18 128.72 57.29 121.01 57.82 113.13C58.8 98.72 71.42 87.32 85.88 87.8C93.22 88.02 99.84 90.75 104.51 95.48C106.44 97.43 109.6 97.47 111.56 95.56C112.2 94.93 112.77 94.38 113.2 93.86L113.23 93.89L151.09 56.05C152 55.14 152.5 53.93 152.5 52.64S152 50.13 151.09 49.22z" />
    <glyph glyph-name="fill-circle-trolley-check"
      unicode="&#xEA3C;"
      horiz-adv-x="200" d=" M80.07 55.74C80.07 52.978576250846 82.308576250846 50.74 85.07 50.74C87.831423749154 50.74 90.07 52.978576250846 90.07 55.74C90.07 58.501423749154 87.831423749154 60.74 85.07 60.74C82.308576250846 60.74 80.07 58.501423749154 80.07 55.74z M112.33 55.74C112.33 52.978576250846 114.568576250846 50.74 117.33 50.74C120.091423749154 50.74 122.33 52.978576250846 122.33 55.74C122.33 58.501423749154 120.091423749154 60.74 117.33 60.74C114.568576250846 60.74 112.33 58.501423749154 112.33 55.74z M100 200C44.77 200 0 155.23 0 100C0 44.77 44.77 0 100 0C155.23 0 200 44.77 200 100C200 155.23 155.23 200 100 200zM85.99 125.39C86.38 126.58 87.21 127.55 88.33 128.11C89.45 128.68 90.72 128.77 91.91 128.38C93.1 127.99 94.07 127.16 94.63 126.04L99.52 116.39L108.43 141.85C109.28 144.29 111.96 145.58 114.4 144.73C116.84 143.87 118.13 141.19 117.28 138.75L104.73 102.9C104.11 101.12 102.49 99.89 100.61 99.77C100.52 99.76 100.41 99.76 100.3 99.76C98.52 99.76 96.92 100.74 96.12 102.33L86.26 121.81C85.7 122.92 85.6 124.2 85.99 125.39zM85.07 42.99C78.04 42.99 72.32 48.71 72.32 55.74C72.32 62.77 78.04 68.49 85.07 68.49C92.1 68.49 97.82 62.77 97.82 55.74C97.82 48.71 92.1 42.99 85.07 42.99zM117.33 42.99C110.3 42.99 104.58 48.71 104.58 55.74C104.58 62.77 110.3 68.49 117.33 68.49S130.08 62.77 130.08 55.74C130.09 48.71 124.36 42.99 117.33 42.99zM132.57 70.87H71.62C69.04 70.87 66.94 72.97 66.94 75.56C66.94 78.14 69.04 80.25 71.62 80.25H132.57C135.15 80.25 137.25 78.15 137.25 75.56C137.26 72.97 135.15 70.87 132.57 70.87zM147.92 128.6L142.07 98.1C140.28 88.5 134.37 83.63 124.49 83.63H72.52C68.64 83.63 65.94 85.61 64.69 89.37L64.57 89.72L51.59 135.61H41.15C38.57 135.61 36.46 137.71 36.46 140.3C36.46 142.89 38.56 144.99 41.15 144.99H54.46C56.95 144.99 59.16 143.32 59.83 140.93L73.38 93L124.48 93.01C129.68 93.01 131.79 94.74 132.85 99.87L139.41 132.15C140.25 133.42 141.69 134.23 143.3 134.23C145.88 134.23 147.99 132.13 147.99 129.54C148.01 129.23 147.98 128.91 147.92 128.6z" />
    <glyph glyph-name="fill-circle-trolley-input"
      unicode="&#xEA3D;"
      horiz-adv-x="200" d=" M80.07 55.74C80.07 52.978576250846 82.308576250846 50.74 85.07 50.74C87.831423749154 50.74 90.07 52.978576250846 90.07 55.74C90.07 58.501423749154 87.831423749154 60.74 85.07 60.74C82.308576250846 60.74 80.07 58.501423749154 80.07 55.74z M112.33 55.74C112.33 52.978576250846 114.568576250846 50.74 117.33 50.74C120.091423749154 50.74 122.33 52.978576250846 122.33 55.74C122.33 58.501423749154 120.091423749154 60.74 117.33 60.74C114.568576250846 60.74 112.33 58.501423749154 112.33 55.74z M100 200C44.77 200 0 155.23 0 100C0 44.77 44.77 0 100 0C155.23 0 200 44.77 200 100C200 155.23 155.23 200 100 200zM81.26 124.9C82.93 126.55 85.63 126.55 87.3 124.9L95.63 116.64V145.45C95.63 147.68 97.45 149.49 99.69 149.49H100.1C102.34 149.49 104.17 147.67 104.17 145.44V116.57L112.72 125.05C114.38 126.7 117.09 126.7 118.76 125.05C119.57 124.25 120.02 123.18 120.02 122.04S119.57 119.83 118.76 119.03L102.93 103.33C102.09 102.5 101.02 102.08 99.94 102.08C98.87 102.08 97.8 102.49 96.97 103.32C96.57 103.72 81.28 118.88 81.28 118.88L81.28 118.88C80.47 119.68 80.03 120.75 80.03 121.89S80.45 124.1 81.26 124.9zM85.07 42.99C78.04 42.99 72.32 48.71 72.32 55.74C72.32 62.77 78.04 68.49 85.07 68.49C92.1 68.49 97.82 62.77 97.82 55.74C97.82 48.71 92.1 42.99 85.07 42.99zM117.33 42.99C110.3 42.99 104.58 48.71 104.58 55.74C104.58 62.77 110.3 68.49 117.33 68.49S130.08 62.77 130.08 55.74C130.09 48.71 124.36 42.99 117.33 42.99zM132.57 70.87H71.62C69.04 70.87 66.94 72.97 66.94 75.56C66.94 78.14 69.04 80.25 71.62 80.25H132.57C135.15 80.25 137.25 78.15 137.25 75.56C137.26 72.97 135.15 70.87 132.57 70.87zM147.92 128.6L142.07 98.1C140.28 88.5 134.37 83.63 124.49 83.63H72.52C68.64 83.63 65.94 85.61 64.69 89.37L64.57 89.72L51.59 135.61H41.15C38.57 135.61 36.46 137.71 36.46 140.3C36.46 142.89 38.56 144.99 41.15 144.99H54.46C56.95 144.99 59.16 143.32 59.83 140.93L73.38 93L124.48 93.01C129.68 93.01 131.79 94.74 132.85 99.87L139.41 132.15C140.25 133.42 141.69 134.23 143.3 134.23C145.88 134.23 147.99 132.13 147.99 129.54C148.01 129.23 147.98 128.91 147.92 128.6z" />
    <glyph glyph-name="fill-circle-trolley-minus"
      unicode="&#xEA3E;"
      horiz-adv-x="200" d=" M80.07 55.74C80.07 52.978576250846 82.308576250846 50.74 85.07 50.74C87.831423749154 50.74 90.07 52.978576250846 90.07 55.74C90.07 58.501423749154 87.831423749154 60.74 85.07 60.74C82.308576250846 60.74 80.07 58.501423749154 80.07 55.74z M112.33 55.74C112.33 52.978576250846 114.568576250846 50.74 117.33 50.74C120.091423749154 50.74 122.33 52.978576250846 122.33 55.74C122.33 58.501423749154 120.091423749154 60.74 117.33 60.74C114.568576250846 60.74 112.33 58.501423749154 112.33 55.74z M100 200C44.77 200 0 155.23 0 100C0 44.77 44.77 0 100 0C155.23 0 200 44.77 200 100C200 155.23 155.23 200 100 200zM82.48 136.98H117.52C119.68 136.98 121.43 134.97 121.43 132.48S119.68 127.98 117.52 127.98H82.48C80.32 127.98 78.57 129.99 78.57 132.48S80.32 136.98 82.48 136.98zM85.07 42.99C78.04 42.99 72.32 48.71 72.32 55.74C72.32 62.77 78.04 68.49 85.07 68.49C92.1 68.49 97.82 62.77 97.82 55.74C97.82 48.71 92.1 42.99 85.07 42.99zM117.33 42.99C110.3 42.99 104.58 48.71 104.58 55.74C104.58 62.77 110.3 68.49 117.33 68.49S130.08 62.77 130.08 55.74C130.09 48.71 124.36 42.99 117.33 42.99zM132.57 70.87H71.62C69.04 70.87 66.94 72.97 66.94 75.56C66.94 78.14 69.04 80.25 71.62 80.25H132.57C135.15 80.25 137.25 78.15 137.25 75.56C137.26 72.97 135.15 70.87 132.57 70.87zM147.92 128.6L142.07 98.1C140.28 88.5 134.37 83.63 124.49 83.63H72.52C68.64 83.63 65.94 85.61 64.69 89.37L64.57 89.72L51.59 135.61H41.15C38.57 135.61 36.46 137.71 36.46 140.3C36.46 142.89 38.56 144.99 41.15 144.99H54.46C56.95 144.99 59.16 143.32 59.83 140.93L73.38 93L124.48 93.01C129.68 93.01 131.79 94.74 132.85 99.87L139.41 132.15C140.25 133.42 141.69 134.23 143.3 134.23C145.88 134.23 147.99 132.13 147.99 129.54C148.01 129.23 147.98 128.91 147.92 128.6z" />
    <glyph glyph-name="fill-circle-trolley-plus"
      unicode="&#xEA3F;"
      horiz-adv-x="200" d=" M112.33 55.74C112.33 52.978576250846 114.568576250846 50.74 117.33 50.74C120.091423749154 50.74 122.33 52.978576250846 122.33 55.74C122.33 58.501423749154 120.091423749154 60.74 117.33 60.74C114.568576250846 60.74 112.33 58.501423749154 112.33 55.74z M100 200C44.77 200 0 155.23 0 100C0 44.77 44.77 0 100 0C155.23 0 200 44.77 200 100C200 155.23 155.23 200 100 200zM80.81 136.98H97.18V152.67C97.18 155.16 99.19 157.17 101.68 157.17S106.18 155.16 106.18 152.67V136.98H121.19C123.68 136.98 125.69 134.97 125.69 132.48S123.68 127.98 121.19 127.98H106.18V112.29C106.18 109.8 104.17 107.79 101.68 107.79S97.18 109.8 97.18 112.29V127.98H80.81C78.32 127.98 76.31 129.99 76.31 132.48S78.33 136.98 80.81 136.98zM85.07 42.99C78.04 42.99 72.32 48.71 72.32 55.74C72.32 62.77 78.04 68.49 85.07 68.49C92.1 68.49 97.82 62.77 97.82 55.74C97.82 48.71 92.1 42.99 85.07 42.99zM117.33 42.99C110.3 42.99 104.58 48.71 104.58 55.74C104.58 62.77 110.3 68.49 117.33 68.49S130.08 62.77 130.08 55.74C130.09 48.71 124.36 42.99 117.33 42.99zM132.57 70.87H71.62C69.04 70.87 66.94 72.97 66.94 75.56C66.94 78.14 69.04 80.25 71.62 80.25H132.57C135.15 80.25 137.25 78.15 137.25 75.56C137.26 72.97 135.15 70.87 132.57 70.87zM147.92 128.6L142.07 98.1C140.28 88.5 134.37 83.63 124.49 83.63H72.52C68.64 83.63 65.94 85.61 64.69 89.37L64.57 89.72L51.59 135.61H41.15C38.57 135.61 36.46 137.71 36.46 140.3C36.46 142.89 38.56 144.99 41.15 144.99H54.46C56.95 144.99 59.16 143.32 59.83 140.93L73.38 93L124.48 93.01C129.68 93.01 131.79 94.74 132.85 99.87L139.41 132.15C140.25 133.42 141.69 134.23 143.3 134.23C145.88 134.23 147.99 132.13 147.99 129.54C148.01 129.23 147.98 128.91 147.92 128.6z M80.07 55.74C80.07 52.978576250846 82.308576250846 50.74 85.07 50.74C87.831423749154 50.74 90.07 52.978576250846 90.07 55.74C90.07 58.501423749154 87.831423749154 60.74 85.07 60.74C82.308576250846 60.74 80.07 58.501423749154 80.07 55.74z" />
    <glyph glyph-name="gas"
      unicode="&#xEA40;"
      horiz-adv-x="152" d=" M73.219 0.002C48.693 0.002 21.349 12.453 8.656 37.147C-9.246 71.973 1.197 110.139 34.644 132.119C40.746 136.129 45.731 140.652 48.32 144.525C55.843 155.785 56.129 170.521 49.045 182.066C48.724 182.591 48.386 183.107 48.037 183.615C46.822 185.379 45.427 187.047 43.892 188.564L43.397 189.075C42.192 190.315 41.719 192.086 42.143 193.758C42.566 195.429 43.828 196.765 45.479 197.289C75.75 206.886 108.291 190.685 132.524 153.952C136.844 147.403 149.998 127.472 151.781 98.582C152.52 86.541 151.367 73.086 148.691 62.592C146.151 52.622 143.31 45.741 141.373 41.724C140.176 39.245 137.192 38.193 134.691 39.385C132.199 40.575 131.146 43.556 132.342 46.036C134.081 49.643 136.647 55.872 138.984 65.044C141.38 74.4500000000001 142.455 87.067 141.783 97.972C140.164 124.2140000000001 128.113 142.478 124.151 148.4790000000001C116.595 159.932 90.492 194.7350000000001 56.086 189.5570000000001C56.158 189.4550000000001 56.23 189.352 56.299 189.25C56.75 188.591 57.181 187.9310000000001 57.59 187.261C66.697 172.422 66.332 153.478 56.658 139.0030000000001C52.137 132.234 44.381 126.57 40.162 123.7970000000001C11.189 104.756 2.11 71.76 17.568 41.688C22.605 31.891 30.542 24.328 39.717 19.049C32.696 29.729 29.533 43.293 30.297 55.676C30.771 63.338 33.145 75.178 41.776 88.076C53.568 105.695 74.991 120.445 96.256 113.713C97.933 113.181 99.207 111.812 99.611 110.106C100.012 108.4 99.488 106.608 98.225 105.387L98.225 105.387C98.225 105.387 96.538 103.693 95.014 100.798C92.152 95.372 91.023 87.022 101.887 78.061C119.564 63.481 125.395 42.621 117.108 23.623C110.671 8.879 98.379 4.797 93.13 3.054C86.997 1.018 80.221 0.002 73.219 0.002zM68.749 10.176C76.272 9.628 83.581 10.395 89.964 12.512C96.872 14.805 103.833 18.223 107.923 27.596C114.46 42.58 109.816 58.577 95.499 70.389C90.952 74.137 76.844 87.743 86.132 105.406C72.108 105.784 58.419 94.965 50.114 82.551C42.719 71.5 40.692 61.506 40.296 55.069C39.368 40.018 46.204 14.539 68.491 10.233C68.579 10.217 68.663 10.197 68.749 10.176z" />
    <glyph glyph-name="google-ellipse"
      unicode="&#xEA41;"
      horiz-adv-x="200" d=" M82.224 138.945C80.257 140.295 77.995 141.006 75.443 141.084C72.06 141.006 69.247 139.716 67.01 137.209C65.121 134.588 64.214 131.663 64.297 128.427C64.297 124.148 65.622 119.695 68.271 115.072C69.554 112.915 71.211 111.082 73.241 109.581C75.269 108.075 77.586 107.328 80.195 107.328C83.487 107.442 86.232 108.557 88.425 110.679C89.446 112.185 90.103 113.722 90.394 115.302C90.569 116.885 90.658 118.212 90.658 119.291C90.658 123.956 89.398 128.657 86.885 133.395C85.704 135.672 84.149 137.517 82.224 138.945z M81.339 88.366C80.705 88.444 79.074 88.366 76.455 88.137C73.874 87.793 71.232 87.233 68.532 86.466C67.897 86.237 67.001 85.887 65.851 85.429C64.698 84.928 63.527 84.221 62.336 83.293C61.184 82.338 60.21 81.145 59.416 79.722C58.502 78.231 58.046 76.425 58.046 74.31C58.046 70.164 60.031 66.744 64.004 64.054C67.777 61.367 72.938 59.986 79.491 59.908C85.368 59.985 89.855 61.212 92.954 63.595C95.97 65.936 97.48 68.952 97.48 72.639C97.48 75.637 96.448 78.249 94.383 80.476C92.198 82.587 88.781 85.182 84.137 88.252C83.344 88.326 82.413 88.366 81.339 88.366z M100 200C44.771 200 0 155.229 0 100C0 44.771 44.771 0 100 0C155.228 0 200 44.771 200 100C200 155.229 155.229 200 100 200zM95.348 138.702C96.286 137.779 97.205 136.645 98.105 135.3C98.965 134.032 99.729 132.536 100.393 130.805C100.939 129.074 101.215 127.054 101.215 124.749C101.139 120.521 100.165 117.142 98.281 114.608C97.36 113.374 96.383 112.243 95.347 111.202C94.204 110.169 92.985 109.112 91.696 108.034C90.956 107.304 90.274 106.477 89.647 105.555C88.909 104.595 88.542 103.48 88.542 102.213C88.542 100.983 88.921 99.963 89.681 99.155C90.326 98.388 90.952 97.713 91.558 97.14L95.77 93.853C98.387 91.814 100.683 89.569 102.653 87.107C104.514 84.611 105.481 81.341 105.555 77.306C105.555 71.581 102.887 66.509 97.548 62.087C92.01 57.515 84.019 55.15 73.577 54.999C64.836 55.077 58.31 56.83 53.999 60.278C49.649 63.492 47.472 67.336 47.472 71.81C47.472 73.991 48.181 76.423 49.6 79.096C50.977 81.772 53.47 84.126 57.076 86.157C61.128 88.338 65.381 89.788 69.842 90.513C74.256 91.129 77.927 91.473 80.844 91.551C79.942 92.679 79.138 93.892 78.434 95.182C77.61 96.431 77.199 97.936 77.199 99.696C77.199 100.752 77.355 101.628 77.669 102.335C77.942 103.075 78.195 103.759 78.432 104.383C77.013 104.227 75.675 104.154 74.42 104.154C67.767 104.226 62.699 106.206 59.214 110.086C55.565 113.693 53.741 117.899 53.741 122.701C53.741 128.499 56.319 133.761 61.481 138.485C65.026 141.248 68.71 143.057 72.532 143.902C76.311 144.633 79.858 145 83.167 145H108.107L100.369 140.721H92.71C93.491 140.258 94.37 139.587 95.348 138.702zM152.529 121.83H136.148V104.815H130.98V121.829H114.441V127.132H130.98V143.838H136.148V127.131H152.529V121.83z" />
    <glyph glyph-name="google"
      unicode="&#xEA42;"
      horiz-adv-x="233" d=" M134.482 199.802H79.169C71.829 199.802 63.961 198.988 55.578 197.369C47.102 195.496 38.931 191.485 31.07 185.354C19.62 174.877 13.903 163.208 13.903 150.35C13.903 139.7 17.945 130.373 26.041 122.371C33.77 113.767 45.009 109.378 59.763 109.216C62.549 109.216 65.516 109.379 68.661 109.725C68.138 108.341 67.578 106.824 66.971 105.184C66.273 103.616 65.928 101.67 65.928 99.329C65.928 95.429 66.839 92.09 68.667 89.32C70.229 86.46 72.012 83.772 74.012 81.267C67.543 81.093 59.402 80.331 49.612 78.965C39.719 77.357 30.287 74.138 21.301 69.302C13.303 64.801 7.775 59.579 4.72 53.644C1.574 47.718 0.001 42.321 0.001 37.485C0.001 27.559 4.831 19.037 14.478 11.909C24.039 4.262 38.513 0.373 57.898 0.2C81.057 0.537 98.778 5.78 111.063 15.921C122.904 25.726 128.82 36.979 128.82 49.674C128.657 58.6230000000001 126.51 65.872 122.385 71.412C118.012 76.87 112.921 81.849 107.117 86.369L97.775 93.659C96.432 94.93 95.042 96.427 93.611 98.129C91.927 99.921 91.087 102.182 91.087 104.911C91.087 107.72 91.902 110.194 93.54 112.323C94.93 114.37 96.441 116.2020000000001 98.081 117.8210000000001C100.943 120.213 103.645 122.555 106.18 124.8460000000001C108.476 127.1580000000001 110.646 129.6630000000001 112.687 132.4010000000001C116.862 138.0210000000001 119.026 145.5150000000001 119.194 154.8920000000001C119.194 160.0030000000001 118.584 164.483 117.372 168.323C115.899 172.161 114.206 175.4810000000001 112.297 178.291C110.301 181.274 108.265 183.79 106.183 185.8360000000001C104.013 187.8010000000001 102.064 189.287 100.333 190.316H117.32L134.482 199.802zM104.048 56.697C108.625 51.759 110.915 45.965 110.915 39.317C110.915 31.14 107.566 24.45 100.877 19.257C94.004 13.973 84.051 11.253 71.019 11.081C56.484 11.255 45.036 14.319 36.671 20.276C27.859 26.243 23.456 33.827 23.456 43.022C23.456 47.715 24.468 51.717 26.495 55.025C28.256 58.183 30.415 60.829 32.971 62.947C35.612 65.006 38.21 66.573 40.766 67.6820000000001C43.317 68.7020000000001 45.302 69.473 46.711 69.984C52.699 71.6830000000001 58.559 72.925 64.285 73.689C70.094 74.2 73.709 74.372 75.114 74.2C77.496 74.2 79.562 74.109 81.324 73.945C91.625 67.134 99.201 61.381 104.048 56.697zM95.194 133.937C94.548 130.434 93.092 127.023 90.826 123.684C85.961 118.98 79.876 116.505 72.575 116.251C66.788 116.251 61.651 117.91 57.151 121.249C52.65 124.578 48.975 128.643 46.13 133.428C40.255 143.68 37.317 153.557 37.317 163.047C37.134 170.225 39.146 176.711 43.335 182.525C48.299 188.084 54.536 190.945 62.038 191.119C67.699 190.946 72.714 189.368 77.077 186.374C81.348 183.207 84.794 179.115 87.412 174.064C92.987 163.556 95.78 153.129 95.78 142.785C95.779 140.392 95.582 137.449 95.194 133.937zM196.671 160.175V197.226H185.208V160.175H148.532V148.414H185.208V110.681H196.671V148.415H233V160.175H196.671z" />
    <glyph glyph-name="handle_inputfield"
      unicode="&#xEA43;"
      horiz-adv-x="200" d=" M198.532 161.87C196.579 163.822 193.415 163.822 191.462 161.87L38.13 8.537C36.178 6.584 36.178 3.42 38.13 1.467C39.106 0.491 40.387 0.002 41.665 0.002C42.944 0.002 44.226 0.491 45.2 1.467L198.532 154.798C200.487 156.752 200.487 159.917 198.532 161.87zM161.866 198.536C159.915 200.489 156.749 200.489 154.798 198.536L1.464 45.201C-0.488 43.25 -0.488 40.084 1.464 38.133C2.441 37.156 3.721 36.667 4.999 36.667C6.278 36.667 7.56 37.156 8.534 38.133L161.866 191.464C163.821 193.417 163.821 196.583 161.866 198.536z" />
    <glyph glyph-name="icon-archive"
      unicode="&#xEA44;"
      horiz-adv-x="200" d=" M195 46.67C197.76 46.67 200 48.91 200 51.67V173.33C200 178.84 195.52 183.33 190 183.33H10.02C4.5 183.33 0.02 178.85 0.02 173.33L0 26.67C0 21.16 4.48 16.67 10 16.67H195C197.76 16.67 200 18.91 200 21.67C200 24.43 197.76 26.67 195 26.67H10L10.01 135H190V51.67C190 48.91 192.24 46.67 195 46.67zM10.01 145L10.02 173.33H190V145H10.01z M79 123.67C71.83 123.67 66 117.84 66 110.67S71.83 97.67 79 97.67H121C128.17 97.67 134 103.5 134 110.67S128.17 123.67 121 123.67H79zM124 110.67C124 109.02 122.65 107.67 121 107.67H79C77.35 107.67 76 109.02 76 110.67S77.35 113.67 79 113.67H121C122.65 113.67 124 112.32 124 110.67z" />
    <glyph glyph-name="icon-arrow-left-up"
      unicode="&#xEA45;"
      horiz-adv-x="200" d=" M6 200C6.5 200 6.98 199.93 7.45 199.82C7.9 199.93 8.37 200 8.86 200L194 200C197.31 200 200 197.29 200 193.96C200 190.62 197.31 187.92 194 187.92H23.26L198.26 10.31C200.59 7.94 200.58 4.11 198.23 1.76C197.06 0.59 195.53 0.01 194 0.01C192.46 0.01 190.91 0.61 189.74 1.8L12 182.19V6.05C12 2.71 9.31 0.01 6 0.01S0 2.72 0 6.05L0 193.96C0 197.29 2.69 200 6 200z" />
    <glyph glyph-name="icon-arrow-left"
      unicode="&#xEA46;"
      horiz-adv-x="200" d=" M146.52 0C148.05 0 149.58 0.58 150.75 1.74C153.1 4.07 153.12 7.87 150.78 10.23L61.93 99.73L150.8 189.79C153.13 192.15 153.1 195.95 150.74 198.27C148.38 200.6 144.58 200.57 142.26 198.21L49.21 103.93C46.9 101.59 46.9 97.82 49.22 95.49L142.26 1.77C143.43 0.59 144.98 0 146.52 0z" />
    <glyph glyph-name="icon-docs-copy"
      unicode="&#xEA47;"
      horiz-adv-x="200" d=" M176.51 60.14C179.27 60.14 181.5 62.37 181.5 65.13V193.14C181.5 196.81 178.52 199.79 174.85 199.79H55.09C51.42 199.79 48.44 196.81 48.44 193.14V169.86H25.15C21.48 169.86 18.5 166.88 18.5 163.21V6.86C18.5 3.19 21.48 0.21 25.15 0.21H144.9C148.58 0.21 151.55 3.19 151.55 6.86V30.15H176.5C179.26 30.15 181.49 32.38 181.49 35.14L181.49 35.14C181.49 37.9 179.26 40.13 176.5 40.13H151.55V163.2C151.55 166.87 148.57 169.85 144.9 169.85H58.42V189.82H171.52V65.13C171.52 62.37 173.75 60.14 176.51 60.14zM141.58 10.18H28.48V159.88H141.58L141.58 10.18L141.58 10.18z" />
    <glyph glyph-name="icon-docs-plus"
      unicode="&#xEA48;"
      horiz-adv-x="200" d=" M176.51 60.14C179.27 60.14 181.5 62.37 181.5 65.13V193.14C181.5 196.81 178.52 199.79 174.85 199.79H55.09C51.42 199.79 48.44 196.81 48.44 193.14V169.86H25.15C21.48 169.86 18.5 166.88 18.5 163.21V6.86C18.5 3.19 21.48 0.21 25.15 0.21H144.9C148.58 0.21 151.55 3.19 151.55 6.86V30.15H176.5C179.26 30.15 181.49 32.38 181.49 35.14C181.49 37.9 179.26 40.13 176.5 40.13H151.55V163.2C151.55 166.87 148.57 169.85 144.9 169.85H58.42V189.82H171.52V65.13C171.52 62.37 173.75 60.14 176.51 60.14zM141.58 159.88V10.19H141.58H28.48V159.88H141.58z M50.5 77.8H80.07V49.72C80.07 46.96 82.31 44.72 85.07 44.72S90.07 46.96 90.07 49.72V77.8H116.66C119.42 77.8 121.66 80.04 121.66 82.8S119.42 87.8 116.66 87.8H90.07V115.88C90.07 118.64 87.83 120.88 85.07 120.88S80.07 118.64 80.07 115.88V87.8H50.5C47.74 87.8 45.5 85.56 45.5 82.8S47.74 77.8 50.5 77.8z" />
    <glyph glyph-name="icon-electricity-minus"
      unicode="&#xEA49;"
      horiz-adv-x="200" d=" M76.19 0C75.89 0 75.59 0.02 75.29 0.08C72.91 0.52 71.19 2.58 71.19 5V80H40.01C35.53 80 31.68 82.81 30.44 86.96L0.45 187.13C-0.49 190.28 0.07 193.68 1.95 196.21C3.75 198.62 6.53 200 9.59 200H89.52C92.28 200 94.52 197.76 94.52 195S92.28 190 89.52 190H10.03C10.03 190 10.03 190 10.03 189.99L39.96 90.02L72.73 90C77.32 89.99 81.2 86.08 81.19 81.45V32.34L118.14 129.95C118.15 129.97 118.15 129.99 118.16 130H77.86C76.43 130.02 72.4 130 70.05 133.31C67.58 136.79 69.09 141.08 69.81 143.14L76.41 164.78C77.21 167.42 80.01 168.91 82.65 168.11C85.29 167.3 86.78 164.51 85.97 161.87L79.31 140.03C79.31 140.02 79.3 140.01 79.3 139.99H119.49H119.5C122.48 139.99 125.11 138.65 126.71 136.31C128.56 133.61 128.85 129.89 127.48 126.36L80.87 3.23C80.12 1.26 78.24 0 76.19 0z M195 179.92H128.83C126.07 179.92 123.83 177.68 123.83 174.92S126.07 169.92 128.83 169.92H195C197.76 169.92 200 172.16 200 174.92S197.76 179.92 195 179.92z" />
    <glyph glyph-name="icon-electricity-plus"
      unicode="&#xEA4A;"
      horiz-adv-x="200" d=" M76.19 0C75.89 0 75.59 0.02 75.29 0.08C72.91 0.52 71.19 2.58 71.19 5V80H40.01C35.53 80 31.68 82.81 30.44 86.96L0.45 187.13C-0.49 190.28 0.07 193.68 1.95 196.21C3.75 198.62 6.53 200 9.59 200H89.52C92.28 200 94.52 197.76 94.52 195S92.28 190 89.52 190H10.03C10.03 190 10.03 190 10.03 189.99L39.96 90.02L72.73 90C77.32 89.99 81.2 86.08 81.19 81.45V32.34L118.14 129.95C118.15 129.97 118.15 129.99 118.16 130H77.86C76.43 130.02 72.4 130 70.05 133.31C67.58 136.79 69.09 141.08 69.81 143.14L76.41 164.78C77.21 167.42 80.01 168.91 82.65 168.11C85.29 167.3 86.78 164.51 85.97 161.87L79.31 140.03C79.31 140.02 79.3 140.01 79.3 139.99H119.49H119.5C122.48 139.99 125.11 138.65 126.71 136.31C128.56 133.61 128.85 129.89 127.48 126.36L80.87 3.23C80.12 1.26 78.24 0 76.19 0z M195 166.92H168.41V195C168.41 197.76 166.17 200 163.41 200S158.41 197.76 158.41 195V166.92H128.84C126.08 166.92 123.84 164.68 123.84 161.92S126.08 156.92 128.84 156.92H158.41V128.84C158.41 126.08 160.65 123.84 163.41 123.84S168.41 126.08 168.41 128.84V156.92H195C197.76 156.92 200 159.16 200 161.92S197.76 166.92 195 166.92z" />
    <glyph glyph-name="icon-gas-minus"
      unicode="&#xEA4B;"
      horiz-adv-x="220" d=" M73.22 0C48.69 0 21.35 12.45 8.66 37.15C-9.24 71.98 1.2 110.14 34.65 132.12C40.75 136.13 45.74 140.65 48.33 144.53C55.85 155.79 56.14 170.53 49.05 182.07C48.73 182.59 48.39 183.11 48.04 183.62C46.82 185.38 45.43 187.05 43.89 188.57L43.4 189.08C42.19 190.32 41.72 192.09 42.15 193.76C42.57 195.43 43.84 196.77 45.49 197.29C75.76 206.89 108.3 190.69 132.53 153.95C136.85 147.4 150 127.47 151.79 98.58C152.53 86.54 151.38 73.08 148.7 62.59C146.16 52.62 143.32 45.74 141.38 41.72C140.18 39.24 137.2 38.19 134.7 39.38C132.21 40.57 131.16 43.55 132.35 46.03C134.09 49.64 136.65 55.87 138.99 65.04C141.39 74.45 142.46 87.06 141.79 97.97C140.17 124.21 128.12 142.48 124.16 148.48C116.6 159.93 90.49 194.73 56.09 189.56C56.16 189.46 56.23 189.36 56.3 189.25C56.75 188.59 57.18 187.93 57.59 187.26C66.7 172.42 66.33 153.48 56.66 139C52.14 132.23 44.38 126.57 40.16 123.79C11.19 104.75 2.11 71.75 17.57 41.68C22.61 31.88 30.54 24.32 39.72 19.04C32.7 29.72 29.54 43.28 30.3 55.67C30.77 63.33 33.15 75.17 41.78 88.07C53.57 105.69 74.99 120.44 96.26 113.71C97.94 113.18 99.21 111.81 99.62 110.1C100.02 108.39 99.5 106.6 98.23 105.38L98.23 105.38C98.23 105.38 96.54 103.69 95.02 100.79C92.16 95.36 91.03 87.01 101.89 78.05C119.57 63.47 125.4 42.61 117.11 23.61C110.67 8.87 98.38 4.78 93.13 3.04C87 1.02 80.22 0 73.22 0zM68.75 10.17C76.27 9.62 83.58 10.39 89.97 12.51C96.88 14.8 103.84 18.22 107.93 27.59C114.47 42.57 109.82 58.57 95.51 70.38C90.96 74.13 76.86 87.73 86.14 105.4C72.12 105.78 58.43 94.96 50.12 82.55C42.72 71.5 40.7 61.5 40.3 55.07C39.37 40.02 46.21 14.54 68.49 10.23C68.58 10.22 68.66 10.2 68.75 10.17z M215 174.92H148.83C146.07 174.92 143.83 172.68 143.83 169.92S146.07 164.92 148.83 164.92H215C217.76 164.92 220 167.16 220 169.92S217.76 174.92 215 174.92z" />
    <glyph glyph-name="icon-gas-plus"
      unicode="&#xEA4C;"
      horiz-adv-x="220" d=" M73.22 -1.62C48.69 -1.62 21.35 10.83 8.66 35.53C-9.25 70.36 1.2 108.52 34.64 130.5C40.74 134.51 45.73 139.03 48.32 142.91C55.84 154.17 56.13 168.91 49.04 180.45C48.72 180.97 48.38 181.49 48.03 182C46.81 183.76 45.42 185.43 43.88 186.95L43.39 187.46C42.18 188.7 41.71 190.47 42.14 192.14C42.56 193.81 43.83 195.15 45.48 195.67C75.75 205.27 108.29 189.07 132.52 152.33C136.84 145.78 149.99 125.85 151.78 96.96C152.52 84.92 151.37 71.46 148.69 60.97C146.15 51 143.31 44.12 141.37 40.1C140.17 37.62 137.19 36.57 134.69 37.76C132.2 38.95 131.15 41.93 132.34 44.41C134.08 48.02 136.64 54.25 138.98 63.42C141.38 72.83 142.45 85.44 141.78 96.35C140.16 122.59 128.11 140.86 124.15 146.86C116.6 158.31 90.49 193.12 56.09 187.94C56.16 187.84 56.23 187.74 56.3 187.63C56.75 186.97 57.18 186.31 57.59 185.64C66.7 170.8 66.33 151.86 56.66 137.38C52.14 130.61 44.38 124.95 40.16 122.17C11.19 103.13 2.11 70.13 17.57 40.06C22.61 30.26 30.54 22.7 39.72 17.42C32.7 28.1 29.54 41.66 30.3 54.05C30.77 61.71 33.15 73.55 41.78 86.45C53.57 104.08 74.99 118.83 96.26 112.1C97.94 111.57 99.21 110.2 99.62 108.49C100.02 106.78 99.5 104.99 98.23 103.77L98.23 103.77C98.23 103.77 96.54 102.08 95.02 99.18C92.16 93.75 91.03 85.4 101.89 76.44C119.57 61.86 125.4 41 117.11 22C110.67 7.26 98.38 3.17 93.13 1.43C87 -0.6 80.22 -1.62 73.22 -1.62zM68.75 8.56C76.27 8.01 83.58 8.78 89.97 10.9C96.88 13.19 103.84 16.61 107.93 25.98C114.47 40.96 109.82 56.96 95.51 68.77C90.96 72.52 76.86 86.12 86.14 103.79C72.12 104.17 58.43 93.35 50.12 80.94C42.72 69.89 40.7 59.9 40.3 53.46C39.37 38.41 46.21 12.93 68.49 8.62C68.58 8.6 68.66 8.58 68.75 8.56z M215 165.3H188.41V193.38C188.41 196.14 186.17 198.38 183.41 198.38S178.41 196.14 178.41 193.38V165.3H148.84C146.08 165.3 143.84 163.06 143.84 160.3S146.08 155.3 148.84 155.3H178.41V127.22C178.41 124.46 180.65 122.22 183.41 122.22S188.41 124.46 188.41 127.22V155.3H215C217.76 155.3 220 157.54 220 160.3S217.76 165.3 215 165.3z" />
    <glyph glyph-name="icon-heat"
      unicode="&#xEA4D;"
      horiz-adv-x="200" d=" M53.49 31.74C54.43 31.74 55.39 32.03 56.24 32.64C58.55 34.3 59.18 37.68 57.66 40.2C39.74 69.87 47.5 84.64 56.49 101.75C58.96 106.45 61.51 111.31 63.58 116.59C74.2 143.63 74.03 164.53 62.91 196.48C61.93 199.3 59.04 200.71 56.46 199.64C53.88 198.57 52.58 195.42 53.56 192.61C63.87 162.97 64.08 145.54 54.39 120.89C52.55 116.2 50.25 111.82 47.81 107.18C38.53 89.51 28.01 69.48 49.31 34.21C50.27 32.61 51.87 31.74 53.49 31.74z M99.36 31.74C100.3 31.74 101.26 32.03 102.11 32.64C104.42 34.3 105.05 37.68 103.53 40.2C85.61 69.87 93.37 84.64 102.36 101.75C104.83 106.45 107.38 111.31 109.45 116.59C120.07 143.63 119.9 164.53 108.78 196.48C107.8 199.3 104.91 200.72 102.33 199.64C99.75 198.57 98.45 195.42 99.43 192.61C109.74 162.97 109.95 145.54 100.26 120.89C98.42 116.2 96.12 111.82 93.68 107.18C84.4 89.51 73.88 69.48 95.18 34.21C96.14 32.61 97.74 31.74 99.36 31.74z M145.23 31.74C146.17 31.74 147.13 32.03 147.98 32.64C150.29 34.3 150.92 37.68 149.4 40.2C131.48 69.87 139.24 84.64 148.23 101.75C150.7 106.45 153.25 111.31 155.32 116.59C165.94 143.63 165.77 164.54 154.65 196.48C153.67 199.3 150.78 200.72 148.2 199.64C145.62 198.57 144.32 195.42 145.3 192.61C155.61 162.97 155.82 145.54 146.13 120.89C144.29 116.2 141.9900000000001 111.82 139.55 107.18C130.27 89.51 119.75 69.48 141.05 34.21C142.01 32.61 143.61 31.74 145.23 31.74z M174 10H26C23.24 10 21 7.76 21 5S23.24 0 26 0H174C176.76 0 179 2.24 179 5S176.76 10 174 10z" />
    <glyph glyph-name="icon-plus"
      unicode="&#xEA4E;"
      horiz-adv-x="200" d=" M105.42 96.08L195.58 96.08C198.3 96.08 200.5 98.28 200.5 101C200.5 103.72 198.3 105.92 195.58 105.92L105.42 105.92V196.08C105.42 198.8 103.22 201 100.5 201C97.78 201 95.58 198.8 95.58 196.08L95.58 105.92H5.42C2.7 105.92 0.5 103.72 0.5 101C0.5 99.64 1.05 98.41 1.94 97.52C2.83 96.63 4.06 96.08 5.42 96.08L95.58 96.08L95.58 5.92C95.58 4.56 96.13 3.33 97.02 2.44C97.91 1.55 99.14 1 100.5 1C103.22 1 105.42 3.2 105.42 5.92V96.08z" />
    <glyph glyph-name="icon-settings"
      unicode="&#xEA4F;"
      horiz-adv-x="200" d=" M100 118.27C110.08 118.27 118.27 110.07 118.27 100S110.07 81.73 100 81.73S81.73 89.93 81.73 100S89.92 118.27 100 118.27M100 127.27C84.94 127.27 72.73 115.06 72.73 100C72.73 84.94 84.94 72.73 100 72.73S127.27 84.94 127.27 100C127.27 115.06 115.06 127.27 100 127.27L100 127.27z M100 191C105.06 191 109.18 186.88 109.18 181.82V180.97C109.22 171.41 114.91 162.8 123.68 159.02C126.74 157.68 129.98 157 133.32 157C139.63 157 145.59 159.43 150.11 163.84C150.13 163.86 150.16 163.89 150.18 163.91L150.73 164.46C152.46 166.2 154.77 167.15 157.23 167.15S161.99 166.19 163.73 164.45C165.47 162.72 166.42 160.41 166.42 157.95S165.46 153.19 163.72 151.45L163.17 150.9C163.15 150.88 163.12 150.85 163.1 150.83C156.64 144.23 154.58 134.7 157.61 126.1C157.72 125.28 157.94 124.48 158.26 123.72C162.03 114.92 170.65 109.21 180.26 109.17H181.81C186.87 109.17 190.99 105.05 190.99 99.99S186.87 90.81 181.81 90.81L180.96 90.81C171.4 90.77 162.8 85.08 159.02 76.31C155.06 67.29 156.95 56.92 163.84 49.88C163.86 49.86 163.89 49.83 163.91 49.81L164.46 49.26C166.2 47.53 167.15 45.22 167.15 42.76C167.15 40.31 166.19 38 164.45 36.26C162.72 34.52 160.41 33.57 157.95 33.57C155.5 33.57 153.19 34.53 151.45 36.27L150.9 36.82C150.88 36.84 150.85 36.87 150.83 36.89C146.32 41.3 140.36 43.73 134.04 43.73C130.7 43.73 127.46 43.05 124.4 41.71C115.63 37.93 109.94 29.3199999999999 109.9 19.73V18.18C109.9 13.1199999999999 105.78 8.9999999999999 100.72 8.9999999999999S91.54 13.1199999999999 91.54 18.18V19C91.54 19.07 91.54 19.14 91.54 19.21C91.31 29.03 85.26 37.58 76.1 41.07C73.1 42.35 69.94 43 66.67 43C60.36 43 54.4 40.57 49.88 36.16C49.86 36.14 49.83 36.11 49.81 36.09L49.26 35.54C47.53 33.8 45.22 32.85 42.76 32.85S38 33.81 36.26 35.55C34.52 37.28 33.57 39.59 33.57 42.05C33.57 44.5 34.53 46.81 36.27 48.55L36.82 49.1C36.84 49.12 36.87 49.15 36.89 49.17C43.78 56.21 45.67 66.58 41.71 75.6C37.93 84.37 29.32 90.06 19.73 90.1H18.18C13.12 90.1 9 94.22 9 99.28C9 104.34 13.12 108.46 18.18 108.46H19C19.07 108.46 19.14 108.46 19.21 108.46C29.03 108.69 37.58 114.74 41.07 123.9C44.9 132.87 42.99 143.13 36.16 150.11C36.14 150.13 36.11 150.16 36.09 150.18L35.54 150.73C33.8 152.46 32.85 154.77 32.85 157.23S33.81 161.99 35.55 163.73C37.28 165.47 39.59 166.42 42.05 166.42S46.81 165.46 48.55 163.72L49.1 163.17C49.12 163.15 49.15 163.12 49.17 163.1C53.68 158.69 59.64 156.26 65.96 156.26C68.69 156.26 71.35 156.71 73.9 157.61C74.72 157.72 75.52 157.94 76.28 158.26C85.08 162.03 90.79 170.65 90.83 180.26V181.81C90.82 186.88 94.94 191 100 191M100 200C89.96 200 81.82 191.86 81.82 181.82V180.27C81.8 174.29 78.22 168.9 72.73 166.54H72C70.05 165.68 67.99 165.26 65.95 165.26C62.11 165.26 58.32 166.74 55.46 169.54L54.91 170.09C51.5 173.5 46.87 175.42 42.05 175.42S32.6 173.5 29.19 170.09C25.78 166.68 23.86 162.05 23.86 157.23C23.86 152.4 25.78 147.78 29.19 144.37L29.74 143.82C34.03 139.44 35.22 132.88 32.74 127.27C30.6 121.49 25.16 117.6 19 117.45H18.18C8.14 117.45 0 109.31 0 99.27S8.14 81.09 18.18 81.09H19.73C25.71 81.07 31.1 77.49 33.46 72C35.94 66.39 34.75 59.84 30.46 55.45L29.91 54.9C26.5 51.49 24.58 46.86 24.58 42.04C24.58 37.21 26.5 32.59 29.91 29.18C33.32 25.77 37.95 23.8499999999999 42.77 23.8499999999999S52.22 25.7699999999999 55.63 29.18L56.18 29.73C59.04 32.53 62.83 34.01 66.67 34.01C68.71 34.01 70.78 33.59 72.72 32.73C78.5 30.6 82.39 25.16 82.54 19V18.18C82.54 8.14 90.68 0 100.72 0C110.76 0 118.9 8.14 118.9 18.18V19.73C118.92 25.71 122.5 31.1 127.99 33.46C129.94 34.32 132 34.74 134.04 34.74C137.88 34.74 141.67 33.26 144.53 30.46L145.0800000000001 29.91C148.4900000000001 26.5 153.12 24.58 157.9400000000001 24.58C162.7700000000001 24.58 167.3900000000001 26.4999999999999 170.8000000000001 29.91C174.2100000000001 33.32 176.1300000000001 37.95 176.1300000000001 42.77C176.1300000000001 47.6 174.2100000000001 52.22 170.8000000000001 55.63L170.2500000000001 56.18C165.9600000000001 60.56 164.7700000000001 67.12 167.2500000000001 72.73C169.6100000000001 78.23 175.0000000000001 81.8 180.9800000000001 81.82H181.8000000000001C191.84 81.82 199.9800000000001 89.96 199.9800000000001 100S191.84 118.18 181.8000000000001 118.18H180.25C174.2700000000001 118.2 168.88 121.78 166.5200000000001 127.27V128C164.0400000000001 133.61 165.2300000000001 140.16 169.5200000000001 144.55L170.0700000000001 145.1C173.4800000000001 148.51 175.4000000000001 153.14 175.4000000000001 157.96C175.4000000000001 162.79 173.4800000000001 167.41 170.0700000000001 170.82C166.6600000000001 174.23 162.0300000000001 176.15 157.21 176.15C152.38 176.15 147.7600000000001 174.23 144.35 170.82L143.8 170.27C140.94 167.47 137.15 165.99 133.31 165.99C131.27 165.99 129.2 166.41 127.26 167.27C121.76 169.63 118.19 175.02 118.17 181V181.82C118.18 191.86 110.04 200 100 200L100 200z" />
    <glyph glyph-name="icon-trolley-minus"
      unicode="&#xEA50;"
      horiz-adv-x="200" d=" M199.89 162.3L199.89 162.3L189.02 105.56C186.07 89.74 176.64 81.66 159.98 81.66H63.32C58.15 81.66 54.22 83.95 52.29 89.79L52.12 90.28L27.22 178.33H5C2.24 178.33 0 180.57 0 183.33C0 186.09 2.24 188.33 5 188.33H29.75C32.72 188.33 35.36 186.33 36.17 183.48L61.66 93.33C61.88 92.6 62.58 91.64 63.79 91.64L159.98 91.66C171.63 91.66 176.92 96.42 179.19 107.39L190.07 164.14L190.08 164.14C190.47 166.51 192.52 168.33 195 168.33C197.76 168.33 200 166.09 200 163.33C200 162.98 199.96 162.63 199.89 162.3z M146.67 51.67C135.63 51.67 126.67 42.72 126.67 31.67C126.67 20.62 135.63 11.67 146.67 11.67S166.67 20.62 166.67 31.67C166.67 42.71 157.71 51.67 146.67 51.67zM146.67 21.67C141.16 21.67 136.67 26.15 136.67 31.67C136.67 37.18 141.16 41.67 146.67 41.67S156.67 37.18 156.67 31.67C156.67 26.15 152.18 21.67 146.67 21.67z M86.67 51.67C75.63 51.67 66.67 42.72 66.67 31.67C66.67 20.62 75.63 11.67 86.67 11.67S106.67 20.62 106.67 31.67C106.67 42.71 97.71 51.67 86.67 51.67zM86.67 21.67C81.16 21.67 76.67 26.15 76.67 31.67C76.67 37.18 81.16 41.67 86.67 41.67S96.67 37.18 96.67 31.67C96.67 26.15 92.18 21.67 86.67 21.67z M180 66.67C180 69.43 177.77 71.67 175.01 71.67H61.66C58.9 71.67 56.67 69.43 56.67 66.67C56.67 63.91 58.9 61.67 61.66 61.67H175.01C177.76 61.67 180 63.9 180 66.67z M149.42 165.12H83.25C80.49 165.12 78.25 162.88 78.25 160.12S80.49 155.12 83.25 155.12H149.42C152.18 155.12 154.42 157.36 154.42 160.12S152.18 165.12 149.42 165.12z" />
    <glyph glyph-name="icon-trolley-plus"
      unicode="&#xEA51;"
      horiz-adv-x="200" d=" M199.89 159.86L199.89 159.86L189.02 103.12C186.07 87.3 176.64 79.22 159.98 79.22H63.32C58.15 79.22 54.22 81.51 52.29 87.35L52.12 87.84L27.23 175.9H5C2.24 175.9 0 178.14 0 180.9C0 183.66 2.24 185.9 5 185.9H29.75C32.72 185.9 35.36 183.9 36.17 181.05L61.66 90.9C61.88 90.17 62.58 89.21 63.79 89.21L159.98 89.23C171.63 89.23 176.92 93.99 179.19 104.96L190.07 161.71L190.08 161.71C190.47 164.08 192.52 165.9 195 165.9C197.76 165.9 200 163.66 200 160.9C200 160.54 199.96 160.2 199.89 159.86z M146.66 49.23C135.62 49.23 126.66 40.28 126.66 29.23C126.66 18.18 135.62 9.23 146.66 9.23S166.66 18.18 166.66 29.23C166.66 40.28 157.71 49.23 146.66 49.23zM146.66 19.23C141.15 19.23 136.66 23.71 136.66 29.23C136.66 34.74 141.15 39.23 146.66 39.23S156.66 34.74 156.66 29.23C156.66 23.71 152.18 19.23 146.66 19.23z M86.66 49.23C75.62 49.23 66.66 40.28 66.66 29.23C66.66 18.18 75.62 9.23 86.66 9.23S106.66 18.18 106.66 29.23C106.66 40.28 97.71 49.23 86.66 49.23zM86.66 19.23C81.15 19.23 76.66 23.71 76.66 29.23C76.66 34.74 81.15 39.23 86.66 39.23S96.66 34.74 96.66 29.23C96.66 23.71 92.18 19.23 86.66 19.23z M180 64.23C180 66.99 177.77 69.23 175.01 69.23H61.66C58.9 69.23 56.67 66.99 56.67 64.23C56.67 61.47 58.9 59.23 61.66 59.23H175.01C177.76 59.23 180 61.47 180 64.23z M149.41 162.69H122.82V190.77C122.82 193.53 120.58 195.77 117.82 195.77S112.82 193.53 112.82 190.77V162.69H83.25C80.49 162.69 78.25 160.45 78.25 157.69S80.49 152.69 83.25 152.69H112.82V124.6C112.82 121.84 115.06 119.6 117.82 119.6S122.82 121.84 122.82 124.6V152.69H149.41C152.17 152.69 154.41 154.93 154.41 157.69S152.18 162.69 149.41 162.69z" />
    </font>
</defs>
</svg>
